<?xml version="1.0" encoding="UTF-8"?>
<svg version="1.1" xmlns="http://www.w3.org/2000/svg" width="500" height="500">
<path d="M0 0 C14.79763988 7.07293391 28.84787746 15.37606093 42.76171875 24.0390625 C47.13328218 26.68625773 51.59327285 29.16181976 56.05932617 31.64501953 C60.27244901 33.99805849 64.40436603 36.44529762 68.5 39 C75.20873178 43.17948185 82.08221115 47.02530649 88.98486328 50.87109375 C93.44429047 53.36932386 97.87167487 55.92405938 102.3046875 58.46875 C103.85066928 59.3470469 105.4096629 60.20483145 107 61 C107 61.66 107 62.32 107 63 C107.598125 63.144375 108.19625 63.28875 108.8125 63.4375 C110.56150404 63.8872439 112.28677023 64.42892341 114 65 C114 65.66 114 66.32 114 67 C115.32 67.33 116.64 67.66 118 68 C123.28 70.64 128.56 73.28 134 76 C134.33 122.53 134.66 169.06 135 217 C131 216 131 216 129.140625 213.18359375 C128.49616963 211.94218878 127.86691259 210.69281984 127.25 209.4375 C126.91000977 208.77290771 126.57001953 208.10831543 126.21972656 207.42358398 C125.13242783 205.28917365 124.06547572 203.14537575 123 201 C122.2820508 199.57511706 121.5633082 198.15063359 120.84375 196.7265625 C119.21300248 193.4894014 117.58654398 190.25043224 116.00236893 186.99017334 C115.35516544 185.70517029 114.67484681 184.43608285 113.95615768 183.18965149 C111.09864711 178.07244806 110.45791032 174.09242138 110.63769531 168.2890625 C110.64686478 167.45884079 110.65603424 166.62861908 110.66548157 165.77323914 C110.70027308 163.05646966 110.76395967 160.34122061 110.828125 157.625 C110.85805438 155.73074036 110.88616419 153.83645117 110.91253662 151.94213867 C110.98651885 146.97695256 111.08508871 142.01255258 111.18890381 137.0479126 C111.29061987 131.97359215 111.36891339 126.8989152 111.44921875 121.82421875 C111.6099786 111.88232659 111.79673391 101.94110763 112 92 C111.38447266 91.85802689 110.76894531 91.71605377 110.13476562 91.56977844 C107.61423814 90.89703844 105.73812011 89.82031003 103.5 88.48046875 C102.62279297 87.95864014 101.74558594 87.43681152 100.84179688 86.89916992 C99.90400391 86.33431885 98.96621094 85.76946777 98 85.1875 C97.02611328 84.60653564 96.05222656 84.02557129 95.04882812 83.42700195 C92.0290888 81.6237094 89.013879 79.81306745 86 78 C85.08863281 77.45214844 84.17726563 76.90429688 83.23828125 76.33984375 C81.49881242 75.29410695 79.75939052 74.2482921 78.02001953 73.20239258 C61.64054638 63.35598385 45.10198651 53.55099326 28 45 C28 44.34 28 43.68 28 43 C27.34 42.79375 26.68 42.5875 26 42.375 C19.28378959 39.2967369 14.84639921 35.21341412 11 29 C10.34 29 9.68 29 9 29 C8.66379639 29.63276855 8.32759277 30.26553711 7.98120117 30.91748047 C1.80953107 42.50232649 -4.44949341 53.96536072 -11.39135742 65.10839844 C-14.07816605 69.43711805 -16.51163651 73.78086377 -18.69921875 78.38671875 C-20.84522641 82.69806748 -23.2592246 86.85855838 -25.63330078 91.04736328 C-27.78754218 94.84838664 -29.91954863 98.65782937 -32 102.5 C-34.4541046 107.02645959 -36.97004574 111.51569783 -39.5 116 C-45.76941044 127.12277211 -51.80595571 138.35967711 -57.76171875 149.65283203 C-59.04798722 152.09096001 -60.33645582 154.52791783 -61.625 156.96484375 C-67.93918337 168.91743477 -67.93918337 168.91743477 -74 181 C-74.66 181 -75.32 181 -76 181 C-76.11972168 181.7314624 -76.23944336 182.4629248 -76.36279297 183.21655273 C-76.99632245 185.98393575 -77.87127355 188.03487188 -79.1953125 190.53515625 C-79.65631348 191.41268555 -80.11731445 192.29021484 -80.59228516 193.19433594 C-81.09808105 194.14083008 -81.60387695 195.08732422 -82.125 196.0625 C-82.65270996 197.0618457 -83.18041992 198.06119141 -83.72412109 199.09082031 C-85.47443236 202.39837512 -87.23567449 205.69990075 -89 209 C-89.61875 210.15806152 -90.2375 211.31612305 -90.875 212.50927734 C-93.42491269 217.27911883 -95.97831307 222.0470787 -98.5378418 226.81176758 C-103.74762059 236.51219845 -108.89402877 246.24459144 -114 256 C-118.39383706 254.40376856 -122.28995807 252.21975667 -126.3125 249.875 C-126.95767578 249.50246094 -127.60285156 249.12992188 -128.26757812 248.74609375 C-129.84675945 247.83367787 -131.42361864 246.91724491 -133 246 C-132.5347742 240.9988226 -131.18319046 238.7962077 -128 235 C-126.42707451 232.33003413 -125.03279428 229.57236147 -123.625 226.8125 C-121.18322398 222.10375182 -118.74365498 217.44272415 -115.9375 212.9375 C-113.15564654 208.40186935 -110.79582763 203.69054201 -108.4440918 198.92407227 C-100.8735469 183.60993145 -92.88791393 168.50283641 -84.66552734 153.52978516 C-80.18304748 145.36343658 -75.79097598 137.15000003 -71.40457153 128.93185425 C-67.52454809 121.66601755 -63.59833199 114.43064646 -59.5625 107.25 C-56.53402234 101.86045074 -53.66473987 96.42305821 -50.9375 90.875 C-47.31692888 83.51560924 -43.37547105 76.37709338 -39.29638672 69.26318359 C-37.84948839 66.73724244 -36.41083145 64.20669867 -34.97265625 61.67578125 C-33.91953683 59.82536942 -32.86615384 57.97510757 -31.8125 56.125 C-31.32555664 55.26946533 -30.83861328 54.41393066 -30.33691406 53.5324707 C-27.87889341 49.23010246 -25.38168217 44.95816445 -22.81640625 40.71875 C-20.77419797 37.33133286 -18.85442333 33.93557744 -17.125 30.375 C-16.71507812 29.53710938 -16.30515625 28.69921875 -15.8828125 27.8359375 C-15.59148437 27.23007813 -15.30015625 26.62421875 -15 26 C-14.34 26 -13.68 26 -13 26 C-12.90332031 25.29488281 -12.80664062 24.58976562 -12.70703125 23.86328125 C-11.87918738 20.51074227 -10.48846383 18.1299741 -8.6875 15.1875 C-6.53739906 11.61135675 -4.45881899 8.06134029 -2.625 4.3125 C-1 1 -1 1 0 0 Z " fill="#1E2629" transform="translate(248,84)"/>
<path d="M0 0 C0.99 0 1.98 0 3 0 C3.60585937 1.11375 4.21171875 2.2275 4.8359375 3.375 C9.49950159 11.88948052 14.31285412 20.24580733 19.5222168 28.43823242 C22.41260678 33.00155378 25.04161528 37.65307218 27.57421875 42.42578125 C29.108883 45.19658603 30.77881258 47.84134667 32.5 50.5 C35.36214916 54.92787627 37.9336754 59.44185573 40.42578125 64.0859375 C45.87506694 74.17320083 51.77800321 83.98692427 57.7019043 93.79956055 C60.85635599 99.04186527 63.88526252 104.32516084 66.75390625 109.73046875 C68.40013805 112.72877807 70.23140629 115.58901391 72.1171875 118.44140625 C73 120 73 120 73 122 C22.015 122.495 22.015 122.495 -30 123 C-30.33 122.34 -30.66 121.68 -31 121 C-30.33496094 119.30761719 -30.33496094 119.30761719 -29.234375 117.296875 C-28.83863281 116.56339844 -28.44289063 115.82992187 -28.03515625 115.07421875 C-27.61105469 114.30722656 -27.18695313 113.54023438 -26.75 112.75 C-25.93172621 111.24509899 -25.11400765 109.73989593 -24.296875 108.234375 C-23.74531738 107.23229004 -23.74531738 107.23229004 -23.18261719 106.20996094 C-21.73263468 103.50037347 -20.36524095 100.75308848 -19 98 C-18.45400146 98.00222061 -17.90800293 98.00444122 -17.34545898 98.00672913 C-11.63477232 98.02894609 -5.92409804 98.04397477 -0.21337891 98.05493164 C1.91455586 98.05994349 4.04248721 98.06675472 6.17041016 98.07543945 C9.23861537 98.08764336 12.30677484 98.09325993 15.375 98.09765625 C16.31802979 98.10281754 17.26105957 98.10797882 18.23266602 98.11329651 C23.58428404 98.11374547 28.70468368 97.78398894 34 97 C29.8208914 88.86952714 25.48259401 80.98032609 20.43237305 73.35644531 C17.107013 68.29180867 14.16536631 63.04804978 11.35766602 57.67993164 C8.55920674 52.50094308 4.99954304 48.30294687 1 44 C-1.04309833 47.60335683 -3.08420642 51.20783743 -5.125 54.8125 C-5.97964844 56.31973633 -5.97964844 56.31973633 -6.8515625 57.85742188 C-11.73909707 66.49391762 -16.61385401 75.12635283 -21.00292969 84.02880859 C-22.93499277 87.84846513 -25.04436419 91.57239771 -27.125 95.3125 C-30.91975357 102.16506242 -34.62936793 109.0539265 -38.25 116 C-40.92865962 121.13756917 -43.6557267 126.20960064 -46.625 131.1875 C-50.47586063 137.66312176 -53.77650601 144.38902373 -57.09082031 151.14941406 C-58.37991085 153.77328792 -59.68964558 156.38669429 -61 159 C-61.391875 159.78375 -61.78375 160.5675 -62.1875 161.375 C-62.455625 161.91125 -62.72375 162.4475 -63 163 C-63.66 163 -64.32 163 -65 163 C-65.1139209 163.72058594 -65.2278418 164.44117188 -65.34521484 165.18359375 C-66.03314825 168.1425795 -67.05629131 170.38262865 -68.4765625 173.0625 C-68.97961914 174.01890381 -69.48267578 174.97530762 -70.00097656 175.96069336 C-70.5369043 176.96366455 -71.07283203 177.96663574 -71.625 179 C-72.16608398 180.02424072 -72.70716797 181.04848145 -73.26464844 182.10375977 C-74.83584042 185.073106 -76.41592922 188.03750792 -78 191 C-78.41282227 191.77327637 -78.82564453 192.54655273 -79.25097656 193.34326172 C-81.15366612 196.90299636 -83.0681376 200.45598482 -85 204 C-85.99 204 -86.98 204 -88 204 C-88 203.34 -88 202.68 -88 202 C-88.79664063 201.86271484 -88.79664063 201.86271484 -89.609375 201.72265625 C-92.80555415 200.75649098 -95.38739075 199.14884249 -98.25 197.4375 C-99.32765625 196.79683594 -100.4053125 196.15617188 -101.515625 195.49609375 C-102.33546875 195.00238281 -103.1553125 194.50867188 -104 194 C-102.17433716 187.44909217 -99.55676572 182.51087009 -95.8125 176.85546875 C-93.47776052 173.17724772 -91.60366234 169.35526275 -89.69921875 165.44140625 C-87.70409243 161.40070214 -85.6089936 157.41961567 -83.5 153.4375 C-78.60862957 144.18905461 -73.79386888 134.9015256 -68.99804688 125.60327148 C-65.87097798 119.55422417 -62.68328878 113.5465024 -59.40673828 107.57714844 C-57.24534077 103.6174622 -55.15408828 99.62186419 -53.0625 95.625 C-47.19248907 84.45473376 -41.23213204 73.37451901 -34.9375 62.4375 C-31.17911134 55.90528217 -27.56773248 49.37276163 -24.2734375 42.59375 C-22.00668386 37.97680394 -19.49593691 33.49599232 -17 29 C-16.61763184 28.31035156 -16.23526367 27.62070313 -15.84130859 26.91015625 C-13.31414927 22.35250475 -10.78537795 17.79575478 -8.24560547 13.24511719 C-7.3726704 11.67171247 -6.50777951 10.09383044 -5.64892578 8.51269531 C-4.98932861 7.30371582 -4.98932861 7.30371582 -4.31640625 6.0703125 C-3.9201001 5.33828613 -3.52379395 4.60625977 -3.11547852 3.85205078 C-2 2 -2 2 0 0 Z " fill="#253946" transform="translate(246,151)"/>
<path d="M0 0 C9.08542117 3.4719288 17.25437245 8.74026754 25.48046875 13.86328125 C29.25948321 16.1856106 33.12348024 18.34565893 37 20.5 C41.90592528 23.2274546 46.73574282 26.02823562 51.5 29 C58.20873178 33.17948185 65.08221115 37.02530649 71.98486328 40.87109375 C76.44429047 43.36932386 80.87167487 45.92405938 85.3046875 48.46875 C86.85066928 49.3470469 88.4096629 50.20483145 90 51 C90 51.66 90 52.32 90 53 C90.598125 53.144375 91.19625 53.28875 91.8125 53.4375 C93.56150404 53.8872439 95.28677023 54.42892341 97 55 C97 55.66 97 56.32 97 57 C98.98 57.495 98.98 57.495 101 58 C106.28 60.64 111.56 63.28 117 66 C117.33 112.53 117.66 159.06 118 207 C114 206 114 206 112.140625 203.18359375 C111.49616963 201.94218878 110.86691259 200.69281984 110.25 199.4375 C109.91000977 198.77290771 109.57001953 198.10831543 109.21972656 197.42358398 C108.13242783 195.28917365 107.06547572 193.14537575 106 191 C105.2820508 189.57511706 104.5633082 188.15063359 103.84375 186.7265625 C102.21300248 183.4894014 100.58654398 180.25043224 99.00236893 176.99017334 C98.35516544 175.70517029 97.67484681 174.43608285 96.95615768 173.18965149 C94.09864711 168.07244806 93.45791032 164.09242138 93.63769531 158.2890625 C93.64686478 157.45884079 93.65603424 156.62861908 93.66548157 155.77323914 C93.70027308 153.05646966 93.76395967 150.34122061 93.828125 147.625 C93.85805438 145.73074036 93.88616419 143.83645117 93.91253662 141.94213867 C93.98651885 136.97695256 94.08508871 132.01255258 94.18890381 127.0479126 C94.29061987 121.97359215 94.36891339 116.8989152 94.44921875 111.82421875 C94.6099786 101.88232659 94.79673391 91.94110763 95 82 C94.38447266 81.85802689 93.76894531 81.71605377 93.13476562 81.56977844 C90.61423814 80.89703844 88.73812011 79.82031003 86.5 78.48046875 C85.62279297 77.95864014 84.74558594 77.43681152 83.84179688 76.89916992 C82.90400391 76.33431885 81.96621094 75.76946777 81 75.1875 C80.02611328 74.60653564 79.05222656 74.02557129 78.04882812 73.42700195 C75.0290888 71.6237094 72.013879 69.81306745 69 68 C68.08863281 67.45214844 67.17726563 66.90429688 66.23828125 66.33984375 C64.49881242 65.29410695 62.75939052 64.2482921 61.02001953 63.20239258 C44.64054638 53.35598385 28.10198651 43.55099326 11 35 C11 34.34 11 33.68 11 33 C10.34 32.79375 9.68 32.5875 9 32.375 C2.31958167 29.3131416 -2.2293656 25.23604921 -6 19 C-6.66 18.67 -7.32 18.34 -8 18 C-7.42515591 13.9904625 -6.16628226 11.28064567 -4 7.875 C-2.30329901 5.19127583 -1.00743074 3.02229222 0 0 Z " fill="#355873" transform="translate(265,94)"/>
<path d="M0 0 C1.32 0.33 2.64 0.66 4 1 C2.35 4.3 0.7 7.6 -1 11 C-1.66 11 -2.32 11 -3 11 C-3.12600586 11.58628174 -3.25201172 12.17256348 -3.38183594 12.77661133 C-3.98978466 14.96325788 -4.76432386 16.61280001 -5.890625 18.57421875 C-6.45608032 19.56929443 -6.45608032 19.56929443 -7.03295898 20.58447266 C-7.63539429 21.62547119 -7.63539429 21.62547119 -8.25 22.6875 C-10.80526749 27.11343686 -13.24928678 31.50368326 -15.4375 36.125 C-18.29493294 41.27229359 -22.87499231 43.44120455 -28 46 C-28.90105469 46.47566406 -29.80210937 46.95132813 -30.73046875 47.44140625 C-34.45161105 49.37068387 -37.88018371 51.12524449 -42 52 C-42 52.66 -42 53.32 -42 54 C-42.68964844 54.37511719 -43.37929687 54.75023437 -44.08984375 55.13671875 C-50.07568836 58.3964997 -56.05715669 61.66236569 -62 65 C-63.08410156 65.6084375 -64.16820312 66.216875 -65.28515625 66.84375 C-71.92170348 70.59107137 -78.42284708 74.45971494 -84.79296875 78.65234375 C-87 80 -87 80 -90 81 C-90.14941823 86.65921561 -90.29095391 92.31856927 -90.4258728 97.97814941 C-90.47526428 100.03327417 -90.52590179 102.08836936 -90.57778931 104.14343262 C-90.87698919 116.15794648 -91.03795901 128.1503821 -90.85546875 140.16796875 C-90.8293789 142.29744407 -90.80333658 144.42691998 -90.77734375 146.55639648 C-90.72587837 150.61862696 -90.63469828 154.67754899 -90.5234375 158.73852539 C-90.33634381 168.87082155 -90.46440593 175.78567715 -97 184 C-97.74671351 185.35454053 -98.45752096 186.72971048 -99.125 188.125 C-99.43606689 188.76429443 -99.74713379 189.40358887 -100.06762695 190.06225586 C-100.37531006 190.70171143 -100.68299316 191.34116699 -101 192 C-107.83173883 205.8784567 -107.83173883 205.8784567 -111 210 C-111.99 210.33 -112.98 210.66 -114 211 C-114.30394601 192.36338459 -114.53305075 173.72727327 -114.67355824 155.08869171 C-114.7405393 146.43393512 -114.83181611 137.78072004 -114.98071289 129.12695312 C-115.11046169 121.58244272 -115.19419509 114.03904859 -115.22315043 106.4934535 C-115.24007402 102.49891393 -115.27970202 98.50756701 -115.37449074 94.51405334 C-115.46309516 90.75041061 -115.48989059 86.99125596 -115.47039986 83.22666931 C-115.47565378 81.19512451 -115.54545108 79.16406399 -115.61746216 77.13378906 C-115.56197224 73.337397 -115.38170362 70.54173562 -114 67 C-110.01628461 63.40209767 -105.87846923 61.26082901 -101 59 C-99.49340394 58.17865186 -97.99146777 57.34850947 -96.5 56.5 C-95.41525391 55.90832031 -95.41525391 55.90832031 -94.30859375 55.3046875 C-91.6771812 53.81756095 -89.12511536 52.22792451 -86.5625 50.625 C-72.16592162 41.69912141 -57.36145147 33.40985777 -42.57641602 25.14746094 C-32.29387751 19.38410425 -22.17544409 13.32918604 -12.08203125 7.2421875 C-10.08885562 6.0530133 -8.08120496 4.89518667 -6.0625 3.75 C-3.99939144 2.57108082 -1.97710757 1.31807171 0 0 Z " fill="#1A2226" transform="translate(229,94)"/>
<path d="M0 0 C0.66 0.33 1.32 0.66 2 1 C2 1.66 2 2.32 2 3 C2.66 3 3.32 3 4 3 C5.515625 5.08984375 5.515625 5.08984375 7.25 7.9375 C9.44529493 11.50087727 11.67020796 15.00370878 14.0625 18.4375 C16.94015357 22.71222021 19.12918264 27.21574715 21.37890625 31.84375 C23.62874265 36.22415436 26.24102709 40.34044197 28.859375 44.5078125 C31.2220012 48.30941344 33.39237252 52.21130006 35.5625 56.125 C38.65748767 61.69927737 41.92661348 67.09880502 45.3984375 72.44921875 C47.52678497 75.83900142 49.39423454 79.3450514 51.28515625 82.87109375 C56.60047806 92.56943719 62.34657645 102.0255803 68.25 111.375 C71.55197331 116.60486495 74.66156726 121.87969025 77.56640625 127.34375 C79.18970315 130.35149358 80.89834182 133.30044437 82.625 136.25 C83.20636719 137.24386719 83.78773438 138.23773438 84.38671875 139.26171875 C85.36064662 140.91480213 86.34062146 142.5643728 87.33203125 144.20703125 C90 148.68507067 90 148.68507067 90 152 C90.66 152 91.32 152 92 152 C92.29390625 152.56203125 92.5878125 153.1240625 92.890625 153.703125 C96.39232816 160.26378725 100.15404987 166.63638901 104 173 C115.0280197 191.27012463 115.0280197 191.27012463 118 199 C118.66 199 119.32 199 120 199 C120.66 202.3 121.32 205.6 122 209 C120.53626953 209.72316406 120.53626953 209.72316406 119.04296875 210.4609375 C117.75775951 211.09885158 116.47260618 211.73687831 115.1875 212.375 C114.54490234 212.69210937 113.90230469 213.00921875 113.24023438 213.3359375 C110.36805539 214.76458611 107.6732179 216.21785473 105 218 C99.32214769 212.92434415 95.95625083 205.08265297 92.6875 198.3125 C86.75861761 186.20449019 79.28535908 174.80166235 72.33959961 163.26147461 C68.1185757 156.23328818 64.0318299 149.13817157 60 142 C59.63519531 141.39494629 59.27039063 140.78989258 58.89453125 140.16650391 C56 135.315625 56 135.315625 56 132 C55.34 132 54.68 132 54 132 C53.731875 131.51273438 53.46375 131.02546875 53.1875 130.5234375 C46.95796848 119.25290349 40.50837321 108.13709317 33.85864258 97.1105957 C29.12799506 89.25034051 24.50219749 81.33067001 19.89599609 73.39697266 C19.34508301 72.44870605 18.79416992 71.50043945 18.2265625 70.5234375 C17.69450195 69.60530273 17.16244141 68.68716797 16.61425781 67.74121094 C14.49870015 64.14873039 12.29853577 60.61002108 10.07958984 57.08056641 C9 55 9 55 9 52 C8.34 52 7.68 52 7 52 C6.63648438 51.32195312 6.27296875 50.64390625 5.8984375 49.9453125 C0.05245475 38.96171648 0.05245475 38.96171648 -6.78125 28.5859375 C-7.3484375 27.81507813 -7.915625 27.04421875 -8.5 26.25 C-9.0259375 25.57453125 -9.551875 24.8990625 -10.09375 24.203125 C-11 22 -11 22 -10.4453125 19.2578125 C-8.65710226 15.22708995 -6.58202347 11.43901243 -4.375 7.625 C-3.95476562 6.88894531 -3.53453125 6.15289062 -3.1015625 5.39453125 C-2.07247236 3.5936235 -1.03689244 1.79642682 0 0 Z " fill="#1E2528" transform="translate(263,120)"/>
<path d="M0 0 C2 3 2 3 2 6 C2.66 6 3.32 6 4 6 C5.18359375 7.6796875 5.18359375 7.6796875 6.4375 9.875 C8.17330794 12.91130355 8.98654002 13.99102668 12 16 C10.56759722 19.62359189 8.97298034 20.93555726 5.5625 22.75 C4.78003906 23.17796875 3.99757813 23.6059375 3.19140625 24.046875 C1 25 1 25 -2 25 C-2 25.66 -2 26.32 -2 27 C-2.89525391 27.47566406 -2.89525391 27.47566406 -3.80859375 27.9609375 C-15.07638527 34.02177038 -26.08680904 40.53562218 -36.9375 47.3125 C-41.4528719 50.11980987 -46.02216407 52.55451319 -50.80859375 54.859375 C-53.45010759 56.2342806 -55.72205623 57.90049632 -58.09765625 59.68359375 C-61.30916759 61.90593322 -64.76335985 63.67435435 -68.20703125 65.5078125 C-71.58388337 67.31194888 -74.9038953 69.20874992 -78.22265625 71.1171875 C-80 72 -80 72 -82 72 C-82 72.66 -82 73.32 -82 74 C-83.74951568 74.95921722 -85.49963244 75.91733817 -87.25 76.875 C-88.22453125 77.40867187 -89.1990625 77.94234375 -90.203125 78.4921875 C-91.12609375 78.98976563 -92.0490625 79.48734375 -93 80 C-93.65484375 80.41507812 -94.3096875 80.83015625 -94.984375 81.2578125 C-98.05612804 82.38888435 -99.84735807 81.87989412 -103 81 C-105.97116754 79.59821462 -108.79015192 77.96978657 -111.625 76.3125 C-113.23195318 75.39517111 -114.84002853 74.47980521 -116.44921875 73.56640625 C-117.2282959 73.12312988 -118.00737305 72.67985352 -118.81005859 72.22314453 C-122.54799732 70.13539949 -126.38630061 68.26457313 -130.23046875 66.3828125 C-134.8922247 64.05522208 -139.44494592 61.52859301 -144 59 C-144 58.34 -144 57.68 -144 57 C-144.54946289 56.89204102 -145.09892578 56.78408203 -145.66503906 56.67285156 C-148.47535001 55.86302127 -150.78917 54.63170771 -153.359375 53.234375 C-154.39320313 52.67363281 -155.42703125 52.11289062 -156.4921875 51.53515625 C-157.56726563 50.94605469 -158.64234375 50.35695313 -159.75 49.75 C-161.33941406 48.88955078 -161.33941406 48.88955078 -162.9609375 48.01171875 C-168.76605111 44.84987647 -174.43855243 41.57329723 -180 38 C-179.36355878 35.00843299 -178.38047987 32.58061047 -176.93359375 29.890625 C-176.53076172 29.13652344 -176.12792969 28.38242187 -175.71289062 27.60546875 C-175.29201172 26.82816406 -174.87113281 26.05085938 -174.4375 25.25 C-174.01275391 24.45722656 -173.58800781 23.66445313 -173.15039062 22.84765625 C-172.10417583 20.89628933 -171.05394047 18.94720186 -170 17 C-165.86533609 17.50135012 -163.16439084 18.21734446 -159.8125 20.6875 C-153.55962907 25.08570582 -146.84619139 28.61680052 -140 32 C-140 32.66 -140 33.32 -140 34 C-138.70835937 34.37898438 -138.70835937 34.37898438 -137.390625 34.765625 C-133.8172034 36.06654807 -130.95633537 37.71247654 -127.75 39.75 C-126.60045952 40.47167141 -125.45071807 41.19302279 -124.30078125 41.9140625 C-123.21152344 42.60242188 -122.12226563 43.29078125 -121 44 C-117.69792052 46.05831247 -114.37395161 48.06166221 -111 50 C-109.47826172 50.87785156 -109.47826172 50.87785156 -107.92578125 51.7734375 C-106.87777344 52.34320313 -105.82976562 52.91296875 -104.75 53.5 C-103.79609375 54.0259375 -102.8421875 54.551875 -101.859375 55.09375 C-98.07162981 56.29423755 -96.5739171 55.67328434 -93 54 C-90.64278761 52.55112241 -88.388182 51.08075487 -86.125 49.5 C-84.78639221 48.58802694 -83.44650782 47.67792538 -82.10546875 46.76953125 C-81.42274902 46.30627441 -80.7400293 45.84301758 -80.03662109 45.36572266 C-64.99139597 35.27665657 -49.17117118 26.30698251 -33.50390625 17.234375 C-32.42882812 16.61079102 -31.35375 15.98720703 -30.24609375 15.34472656 C-28.17639783 14.14544571 -26.10487776 12.94930551 -24.03125 11.75683594 C-18.8117876 8.73345346 -13.84921377 5.58700142 -9 2 C-5.90494012 0.08834537 -3.65004379 -0.48026892 0 0 Z " fill="#365B75" transform="translate(349,322)"/>
<path d="M0 0 C0.86187644 0.00092179 1.72375288 0.00184359 2.61174679 0.00279331 C4.09049282 0.00073132 4.09049282 0.00073132 5.59911251 -0.00137234 C6.68955364 0.00222294 7.77999477 0.00581821 8.90347958 0.00952244 C10.04479336 0.00937641 11.18610714 0.00923038 12.36200619 0.00907993 C16.15506512 0.00977965 19.94807565 0.01757476 23.74112606 0.02539158 C26.36286549 0.02725555 28.98460527 0.02867955 31.60634518 0.0296793 C37.81473936 0.03279232 44.02311602 0.04100531 50.23150247 0.05102879 C57.29789422 0.06219084 64.3642868 0.06770061 71.43068516 0.07272422 C85.97037244 0.08318795 100.51004588 0.10078682 115.04971981 0.12304783 C115.85506161 1.6635178 115.85506161 1.6635178 116.67667294 3.23510838 C117.39457536 4.59759802 118.11268531 5.95997832 118.83096981 7.32226658 C119.18320614 7.99737278 119.53544247 8.67247898 119.89835262 9.36804295 C122.2465867 13.80885658 124.80106815 17.82879463 128.01846981 21.70507908 C129.04971981 23.12304783 129.04971981 23.12304783 129.04971981 25.12304783 C112.61965876 25.25415571 96.18959241 25.38457674 79.75951958 25.51419926 C72.129281 25.57441254 64.49904427 25.63484332 56.86881161 25.69580173 C50.21163306 25.74898579 43.5544513 25.80174586 36.89726549 25.85401487 C33.37842409 25.88165745 29.85958455 25.90950004 26.34074879 25.93785191 C-1.82887108 26.16456374 -1.82887108 26.16456374 -13.95028019 26.12304783 C-14.28028019 25.46304783 -14.61028019 24.80304783 -14.95028019 24.12304783 C-13.79306808 21.67705428 -12.58391557 19.35337516 -11.26278019 16.99804783 C-10.51719452 15.63910816 -9.77239559 14.27973653 -9.02840519 12.91992283 C-8.66811222 12.26572361 -8.30781925 11.61152439 -7.93660831 10.93750095 C-6.73900342 8.73438225 -5.61436619 6.50054458 -4.51278019 4.24804783 C-2.46656708 0.1556216 -2.46656708 0.1556216 0 0 Z " fill="#1B2326" transform="translate(210.95028018951416,282.8769521713257)"/>
<path d="M0 0 C4.13466391 0.50135012 6.83560916 1.21734446 10.1875 3.6875 C16.44037093 8.08570582 23.15380861 11.61680052 30 15 C30 15.66 30 16.32 30 17 C30.86109375 17.25265625 31.7221875 17.5053125 32.609375 17.765625 C36.1827966 19.06654807 39.04366463 20.71247654 42.25 22.75 C43.39954048 23.47167141 44.54928193 24.19302279 45.69921875 24.9140625 C47.33310547 25.94660156 47.33310547 25.94660156 49 27 C56.13385426 31.44680428 63.43420999 35.33410175 71 39 C71 39.66 71 40.32 71 41 C73.31 41.66 75.62 42.32 78 43 C78 43.66 78 44.32 78 45 C78.825 45.2475 79.65 45.495 80.5 45.75 C84.52373471 47.18704811 88.21979024 49.02354515 92 51 C91.34 52.32 90.68 53.64 90 55 C89.34 55 88.68 55 88 55 C88 55.66 88 56.32 88 57 C86.25048432 57.95921722 84.50036756 58.91733817 82.75 59.875 C81.77546875 60.40867187 80.8009375 60.94234375 79.796875 61.4921875 C78.41242188 62.23855469 78.41242188 62.23855469 77 63 C76.34515625 63.41507812 75.6903125 63.83015625 75.015625 64.2578125 C71.94387196 65.38888435 70.15264193 64.87989412 67 64 C64.02883246 62.59821462 61.20984808 60.96978657 58.375 59.3125 C56.76804682 58.39517111 55.15997147 57.47980521 53.55078125 56.56640625 C52.7717041 56.12312988 51.99262695 55.67985352 51.18994141 55.22314453 C47.45200268 53.13539949 43.61369939 51.26457313 39.76953125 49.3828125 C35.1077753 47.05522208 30.55505408 44.52859301 26 42 C26 41.34 26 40.68 26 40 C25.45053711 39.89204102 24.90107422 39.78408203 24.33496094 39.67285156 C21.52464999 38.86302127 19.21083 37.63170771 16.640625 36.234375 C15.60679687 35.67363281 14.57296875 35.11289062 13.5078125 34.53515625 C12.43273437 33.94605469 11.35765625 33.35695313 10.25 32.75 C9.19039062 32.17636719 8.13078125 31.60273438 7.0390625 31.01171875 C1.23394889 27.84987647 -4.43855243 24.57329723 -10 21 C-9.36355878 18.00843299 -8.38047987 15.58061047 -6.93359375 12.890625 C-6.53076172 12.13652344 -6.12792969 11.38242187 -5.71289062 10.60546875 C-5.29201172 9.82816406 -4.87113281 9.05085938 -4.4375 8.25 C-4.01275391 7.45722656 -3.58800781 6.66445313 -3.15039062 5.84765625 C-2.10417583 3.89628933 -1.05394047 1.94720186 0 0 Z " fill="#192226" transform="translate(179,339)"/>
<path d="M0 0 C7.59 0 15.18 0 23 0 C23.23008254 6.16109907 23.42883346 12.30725848 23.54931641 18.46923828 C23.59952684 20.56285123 23.66771462 22.65611482 23.75439453 24.74853516 C24.45593113 42.12188278 24.45593113 42.12188278 20.90527344 46.70214844 C18.23221245 48.36152915 16.05517372 49.28216066 13 50 C11.84685303 50.42273193 11.84685303 50.42273193 10.67041016 50.85400391 C8 51 8 51 0 47 C0 31.49 0 15.98 0 0 Z " fill="#1F272B" transform="translate(240,317)"/>
<path d="M0 0 C11.88 0 23.76 0 36 0 C36 0.99 36 1.98 36 3 C35.34 3 34.68 3 34 3 C33.79375 3.78375 33.5875 4.5675 33.375 5.375 C31.84560091 9.40705213 29.81830219 12.79380929 27.53515625 16.4375 C25.86575335 19.22408601 24.42160855 22.08039795 23 25 C19.3545658 25.19588601 15.7086421 25.38030536 12.0625 25.5625 C11.02158203 25.61857422 9.98066406 25.67464844 8.90820312 25.73242188 C7.91884766 25.78076172 6.92949219 25.82910156 5.91015625 25.87890625 C4.53549194 25.94960327 4.53549194 25.94960327 3.13305664 26.02172852 C1 26 1 26 0 25 C-0.08737645 23.14630389 -0.10698153 21.28932459 -0.09765625 19.43359375 C-0.09515869 18.42095459 -0.09266113 17.40831543 -0.09008789 16.36499023 C-0.08098389 15.06891846 -0.07187988 13.77284668 -0.0625 12.4375 C-0.041875 8.333125 -0.02125 4.22875 0 0 Z " fill="#293135" transform="translate(147,182)"/>
<path d="M0 0 C11.88 0 23.76 0 36 0 C36.495 12.375 36.495 12.375 37 25 C29.08 25 21.16 25 13 25 C9.1875 17.75 9.1875 17.75 8.00463867 15.48730469 C6.54461892 12.73109578 5.1413906 10.18434074 3.23828125 7.703125 C2 6 2 6 2 3 C1.34 3 0.68 3 0 3 C0 2.01 0 1.02 0 0 Z " fill="#1C2326" transform="translate(313,182)"/>
<path d="M0 0 C4.00884611 1.33628204 4.34681874 3.01370951 6.3125 6.6875 C8.38798802 10.42779436 10.17367375 13.47342744 13.4375 16.25 C16 19 16 19 16.25024414 21.01855469 C16.16682943 23.01236979 16.08341471 25.0061849 16 27 C12.52125243 27.19590444 9.04199096 27.38031592 5.5625 27.5625 C4.56927734 27.61857422 3.57605469 27.67464844 2.55273438 27.73242188 C1.60849609 27.78076172 0.66425781 27.82910156 -0.30859375 27.87890625 C-1.18314209 27.9260376 -2.05769043 27.97316895 -2.95874023 28.02172852 C-5 28 -5 28 -6 27 C-6.92831617 16.57700707 -6.96823138 8.44068504 0 0 Z " fill="#182026" transform="translate(247,212)"/>
<path d="M0 0 C9.66943011 3.69101902 18.37102557 9.3586202 27 15 C23.98532733 16.57147831 21.39463729 17.5533372 18 18 C17.34 17.67 16.68 17.34 16 17 C15.40644386 14.35139573 15.25790731 11.70802678 15 9 C14.278125 9.433125 13.55625 9.86625 12.8125 10.3125 C10 12 10 12 7.1875 13.375 C6.465625 13.91125 5.74375 14.4475 5 15 C4.75 17.5 4.75 17.5 5 20 C4.34 20.99 3.68 21.98 3 23 C2.31822584 24.32567199 1.64808564 25.65753688 1 27 C-0.66666667 25.33333333 -2.33333333 23.66666667 -4 22 C-4.78375 21.34 -5.5675 20.68 -6.375 20 C-8 18 -8 18 -7.7890625 15.6953125 C-6.91435165 12.70743882 -5.66859512 10.49822405 -4 7.875 C-2.30329901 5.19127583 -1.00743074 3.02229222 0 0 Z " fill="#668598" transform="translate(265,94)"/>
<path d="M0 0 C0.99 0 1.98 0 3 0 C3.60585937 1.11375 4.21171875 2.2275 4.8359375 3.375 C9.58836759 12.04969127 14.46213073 20.58047894 19.86279297 28.87109375 C23.55085088 34.60441543 23.55085088 34.60441543 24 38 C23.34 38.66 22.68 39.32 22 40 C21.05598958 38.2421875 20.11197917 36.484375 19.16796875 34.7265625 C17.95236507 32.69497635 17.95236507 32.69497635 15 31 C14.8125 27.875 14.8125 27.875 15 25 C13.35 25.33 11.7 25.66 10 26 C10 22.7 10 19.4 10 16 C8.68 15.67 7.36 15.34 6 15 C6 14.01 6 13.02 6 12 C5.01 12 4.02 12 3 12 C2.67 10.68 2.34 9.36 2 8 C-0.10232344 10.8684413 -0.10232344 10.8684413 -1 14 C-1.99 15.485 -1.99 15.485 -3 17 C-3.99 17 -4.98 17 -6 17 C-7.10836423 18.88316159 -7.10836423 18.88316159 -8 21 C-7.67 21.66 -7.34 22.32 -7 23 C-7.60199219 23.24105469 -8.20398438 23.48210937 -8.82421875 23.73046875 C-11.4542239 25.2650319 -12.34083393 26.66705798 -13.8125 29.3125 C-14.25207031 30.07175781 -14.69164062 30.83101562 -15.14453125 31.61328125 C-16.17367744 34.48455212 -15.83409129 36.10882466 -15 39 C-18.96 41.475 -18.96 41.475 -23 44 C-23.33 43.34 -23.66 42.68 -24 42 C-22.91796875 39.59375 -22.91796875 39.59375 -21.1875 36.5 C-20.87635254 35.93829102 -20.56520508 35.37658203 -20.24462891 34.79785156 C-19.55151421 33.54883264 -18.85467723 32.30187447 -18.15478516 31.05664062 C-16.92146486 28.86013107 -15.70001316 26.65731109 -14.48046875 24.453125 C-12.4038569 20.70242661 -10.32179513 16.95486122 -8.22949219 13.21289062 C-7.36301576 11.6533707 -6.50506871 10.08909672 -5.65332031 8.52148438 C-5.21342773 7.71517578 -4.77353516 6.90886719 -4.3203125 6.078125 C-3.92344238 5.3449707 -3.52657227 4.61181641 -3.11767578 3.85644531 C-2 2 -2 2 0 0 Z " fill="#2E5875" transform="translate(246,151)"/>
<path d="M0 0 C2.31 0 4.62 0 7 0 C7 0.66 7 1.32 7 2 C8.65 2 10.3 2 12 2 C12 6.62 12 11.24 12 16 C12.66 16 13.32 16 14 16 C14 18.97 14 21.94 14 25 C10 24 10 24 7.89453125 20.8671875 C7.18639717 19.54392007 6.49286652 18.21275632 5.8125 16.875 C5.45736328 16.22273438 5.10222656 15.57046875 4.73632812 14.8984375 C2.48457971 10.59148797 1.50586002 6.88794866 1 2 C0.67 1.34 0.34 0.68 0 0 Z " fill="#22415B" transform="translate(369,276)"/>
<path d="M0 0 C0.33 0 0.66 0 1 0 C1.33 41.25 1.66 82.5 2 125 C2.66 124.01 3.32 123.02 4 122 C4.99 122 5.98 122 7 122 C5.7580393 125.43927579 4.44259716 128.25207819 2 131 C1.34 131 0.68 131 0 131 C0 87.77 0 44.54 0 0 Z " fill="#55585D" transform="translate(115,174)"/>
<path d="M0 0 C0.61875 0.185625 1.2375 0.37125 1.875 0.5625 C4.04160178 1.23686176 4.04160178 1.23686176 6 0 C9.85127762 -0.31226575 12.50172714 0.40078955 16 2 C16 2.66 16 3.32 16 4 C15.34 4 14.68 4 14 4 C13.67 5.65 13.34 7.3 13 9 C12.21625 8.175 11.4325 7.35 10.625 6.5 C8.36278736 3.77011494 8.36278736 3.77011494 6 4 C5.45730469 5.04800781 4.91460937 6.09601563 4.35546875 7.17578125 C3.63310441 8.55484044 2.91043199 9.93373829 2.1875 11.3125 C1.83107422 12.00279297 1.47464844 12.69308594 1.10742188 13.40429688 C0.75615234 14.07138672 0.40488281 14.73847656 0.04296875 15.42578125 C-0.27647705 16.03848877 -0.59592285 16.65119629 -0.92504883 17.2824707 C-2.08538924 19.13643272 -3.40296797 20.51434256 -5 22 C-5.66 21.34 -6.32 20.68 -7 20 C-7 19.01 -7 18.02 -7 17 C-6.34 17 -5.68 17 -5 17 C-4.71125 16.05125 -4.4225 15.1025 -4.125 14.125 C-3 11 -3 11 -1 9 C-0.53993654 6.79749008 -0.53993654 6.79749008 -0.375 4.375 C-0.26285156 3.14910156 -0.26285156 3.14910156 -0.1484375 1.8984375 C-0.09945312 1.27195313 -0.05046875 0.64546875 0 0 Z " fill="#4F7086" transform="translate(240,192)"/>
<path d="M0 0 C2.90212286 3.38581001 4.29395475 5.73488687 6 10 C-24.36 10 -54.72 10 -86 10 C-86 9.67 -86 9.34 -86 9 C-56.3 9 -26.6 9 4 9 C2.35 8.67 0.7 8.34 -1 8 C-1.125 2.25 -1.125 2.25 0 0 Z " fill="#393D41" transform="translate(313,263)"/>
<path d="M0 0 C1.98 0 3.96 0 6 0 C5.67 0.99 5.34 1.98 5 3 C5.66 3.33 6.32 3.66 7 4 C7.625 7.0625 7.625 7.0625 8 10 C8.9590625 10.1546875 8.9590625 10.1546875 9.9375 10.3125 C10.9584375 10.6528125 10.9584375 10.6528125 12 11 C12.33 11.99 12.66 12.98 13 14 C13.66 14.66 14.32 15.32 15 16 C15.144375 16.680625 15.28875 17.36125 15.4375 18.0625 C15.623125 18.701875 15.80875 19.34125 16 20 C16.99 20.33 17.98 20.66 19 21 C19 22.32 19 23.64 19 25 C18.34 25.33 17.68 25.66 17 26 C17 26.99 17 27.98 17 29 C13.7 29 10.4 29 7 29 C7 28.67 7 28.34 7 28 C10.96 27.505 10.96 27.505 15 27 C10.72369569 18.76950262 6.36992887 10.72502628 1.25 2.9765625 C0 1 0 1 0 0 Z " fill="#556D83" transform="translate(265,221)"/>
<path d="M0 0 C4.82937107 4.28944138 7.72365406 10.50337302 11 16 C11.55042969 16.9075 12.10085938 17.815 12.66796875 18.75 C13.12816406 19.53375 13.58835937 20.3175 14.0625 21.125 C14.46597656 21.80820313 14.86945313 22.49140625 15.28515625 23.1953125 C16 25 16 25 15 28 C14.67 27.34 14.34 26.68 14 26 C12.35 26.33 10.7 26.66 9 27 C9 25.35 9 23.7 9 22 C8.34 21.67 7.68 21.34 7 21 C6.896875 19.88625 6.79375 18.7725 6.6875 17.625 C6.460625 16.42875 6.23375 15.2325 6 14 C3.58944746 12.33700035 3.58944746 12.33700035 1 11 C-1.32710611 7.08623064 -1.0125959 4.35416235 0 0 Z " fill="#54728A" transform="translate(282,210)"/>
<path d="M0 0 C2.9600659 2.9600659 4.76677577 5.88539038 6.75 9.5 C9.84329191 15.04783818 13.12496812 20.40826657 16.65234375 25.6953125 C17.92889619 27.87840218 18.74643705 29.48595033 19 32 C18.34 32.66 17.68 33.32 17 34 C16.05598958 32.2421875 15.11197917 30.484375 14.16796875 28.7265625 C12.95236507 26.69497635 12.95236507 26.69497635 10 25 C9.8125 21.875 9.8125 21.875 10 19 C8.35 19.33 6.7 19.66 5 20 C5 16.7 5 13.4 5 10 C3.68 9.67 2.36 9.34 1 9 C0.67 6.03 0.34 3.06 0 0 Z " fill="#547188" transform="translate(251,157)"/>
<path d="M0 0 C0.66 0.33 1.32 0.66 2 1 C-2.77899344 7.70459519 -2.77899344 7.70459519 -7.875 8.9375 C-8.90625 8.958125 -9.9375 8.97875 -11 9 C-11 9.66 -11 10.32 -11 11 C-11.66 11 -12.32 11 -13 11 C-13.33 12.65 -13.66 14.3 -14 16 C-14.66 16 -15.32 16 -16 16 C-16.33 16.66 -16.66 17.32 -17 18 C-17.99 17.34 -18.98 16.68 -20 16 C-20.37125 16.495 -20.7425 16.99 -21.125 17.5 C-23.74694393 19.59755514 -25.73842472 19.21743835 -29 19 C-26.80559254 16.61940564 -24.61463213 15.05946812 -21.796875 13.4765625 C-20.98089844 13.0125 -20.16492188 12.5484375 -19.32421875 12.0703125 C-18.47472656 11.59335937 -17.62523437 11.11640625 -16.75 10.625 C-10.92616779 7.3485318 -5.36667194 3.98874266 0 0 Z " fill="#416177" transform="translate(340,324)"/>
<path d="M0 0 C0.28875 0.598125 0.5775 1.19625 0.875 1.8125 C2.04742026 4.19327792 2.04742026 4.19327792 4 7 C4.25760279 9.69452521 4.08900053 12.28548375 4 15 C4.66 15 5.32 15 6 15 C5.34 16.32 4.68 17.64 4 19 C2.33333333 17.33333333 0.66666667 15.66666667 -1 14 C-1.78375 13.34 -2.5675 12.68 -3.375 12 C-5 10 -5 10 -4.875 7.4375 C-4 5 -4 5 -2 2 C-1.34 2 -0.68 2 0 2 C0 1.34 0 0.68 0 0 Z " fill="#8FA1AC" transform="translate(262,102)"/>
<path d="M0 0 C1.32 0.33 2.64 0.66 4 1 C2.35 4.3 0.7 7.6 -1 11 C-1.66 11 -2.32 11 -3 11 C-3.1546875 11.8971875 -3.1546875 11.8971875 -3.3125 12.8125 C-4.08876455 15.28243264 -5.07088921 16.32251235 -7 18 C-7.33 16.68 -7.66 15.36 -8 14 C-7.34 14 -6.68 14 -6 14 C-6 13.01 -6 12.02 -6 11 C-5.34 11 -4.68 11 -4 11 C-4 9.68 -4 8.36 -4 7 C-6.47266765 7.34444881 -6.47266765 7.34444881 -9 8 C-9.33 8.66 -9.66 9.32 -10 10 C-11.65 10 -13.3 10 -15 10 C-11.19879319 6.77473362 -7.33728044 4.40960025 -3 2 C-2.01 1.34 -1.02 0.68 0 0 Z " fill="#363D45" transform="translate(229,94)"/>
<path d="M0 0 C7.27334843 0.16162997 12.15550206 3.95218316 18 8 C14.98532733 9.57147831 12.39463729 10.5533372 9 11 C8.34 10.67 7.68 10.34 7 10 C6.40644386 7.35139573 6.25790731 4.70802678 6 2 C5.21625 2.474375 4.4325 2.94875 3.625 3.4375 C2.11051322 4.33898023 0.5764103 5.21179485 -1 6 C-0.67 4.02 -0.34 2.04 0 0 Z " fill="#5F7C94" transform="translate(274,101)"/>
<path d="M0 0 C0.33 0 0.66 0 1 0 C0.65653727 4.2074185 0.15652771 7.04536169 -2.125 10.625 C-4.29318893 13.78836088 -4.29318893 13.78836088 -3.75 16.9375 C-3.5025 17.618125 -3.255 18.29875 -3 19 C-5.64 20.65 -8.28 22.3 -11 24 C-11.33 23.34 -11.66 22.68 -12 22 C-10.7421875 19.27734375 -10.7421875 19.27734375 -8.875 15.9375 C-8.5545874 15.35911377 -8.2341748 14.78072754 -7.90405273 14.18481445 C-6.94289625 12.45271787 -5.97153464 10.72629685 -5 9 C-4.0203757 7.22941979 -3.041133 5.45862831 -2.0625 3.6875 C-1.37591225 2.45782354 -0.68881098 1.22843249 0 0 Z " fill="#365C78" transform="translate(234,171)"/>
<path d="M0 0 C2 0 2 0 3.375 1.3125 C3.91125 1.869375 4.4475 2.42625 5 3 C6.31963709 4.01800576 7.65009646 5.02248365 9 6 C8.67 7.32 8.34 8.64 8 10 C8.66 10 9.32 10 10 10 C10 10.66 10 11.32 10 12 C11.65 12.33 13.3 12.66 15 13 C15 13.66 15 14.32 15 15 C9.25 13.125 9.25 13.125 7 12 C7 11.34 7 10.68 7 10 C6.2575 9.7525 5.515 9.505 4.75 9.25 C1.79875938 7.90852699 0.15185026 6.39094474 -2 4 C-1.34 2.68 -0.68 1.36 0 0 Z " fill="#597488" transform="translate(269,117)"/>
<path d="M0 0 C0.99 0 1.98 0 3 0 C3.66 1.98 4.32 3.96 5 6 C2 7 2 7 -0.0625 7.375 C-2.3836948 7.90216936 -2.3836948 7.90216936 -4 11 C-3.67 11.66 -3.34 12.32 -3 13 C-6.75 16 -6.75 16 -9 16 C-7.00679515 10.38278634 -4.2456073 4.2456073 0 0 Z " fill="#4B6378" transform="translate(246,151)"/>
<path d="M0 0 C9.24 0 18.48 0 28 0 C28 0.33 28 0.66 28 1 C25.69 1 23.38 1 21 1 C20.67 1.99 20.34 2.98 20 4 C17.69 3.34 15.38 2.68 13 2 C12.62875 2.515625 12.2575 3.03125 11.875 3.5625 C10 5 10 5 6.8125 4.6875 C5.884375 4.460625 4.95625 4.23375 4 4 C4 3.01 4 2.02 4 1 C2.68 0.67 1.36 0.34 0 0 Z " fill="#0B1317" transform="translate(252,250)"/>
<path d="M0 0 C2.78752362 1.39376181 3.30431115 3.17508558 4.6875 5.9375 C5.14511719 6.83339844 5.60273438 7.72929687 6.07421875 8.65234375 C6.37972656 9.42707031 6.68523437 10.20179688 7 11 C6.67 11.66 6.34 12.32 6 13 C5.21625 12.814375 4.4325 12.62875 3.625 12.4375 C1.02910225 11.74037734 1.02910225 11.74037734 -1 13 C-2.16045439 8.74500059 -1.82904781 5.31104861 -1 1 C-0.67 0.67 -0.34 0.34 0 0 Z M2 8 C3 10 3 10 3 10 Z " fill="#48657F" transform="translate(306,251)"/>
<path d="M0 0 C1.65 0 3.3 0 5 0 C4.41892368 3.7602985 3.34800504 6.53035032 1.4375 9.8125 C0.98246094 10.60269531 0.52742187 11.39289063 0.05859375 12.20703125 C-0.29074219 12.79871094 -0.64007813 13.39039063 -1 14 C-1.66 14 -2.32 14 -3 14 C-3.97110486 10.97878489 -4.13617383 8.99536737 -3 6 C-2.34 5.67 -1.68 5.34 -1 5 C-0.34444881 2.47266765 -0.34444881 2.47266765 0 0 Z " fill="#252D31" transform="translate(162,340)"/>
<path d="M0 0 C2.97 0.495 2.97 0.495 6 1 C5.01 1.495 5.01 1.495 4 2 C4 2.66 4 3.32 4 4 C4.763125 3.95875 5.52625 3.9175 6.3125 3.875 C9 4 9 4 12 6 C11.01 6.33 10.02 6.66 9 7 C9 7.66 9 8.32 9 9 C0.42857143 7 0.42857143 7 -3 5 C-3 4.34 -3 3.68 -3 3 C-2.34 3 -1.68 3 -1 3 C-0.67 2.01 -0.34 1.02 0 0 Z " fill="#2E363A" transform="translate(146,341)"/>
<path d="M0 0 C2.90212286 3.38581001 4.29395475 5.73488687 6 10 C-3.24 10 -12.48 10 -22 10 C-22 9.67 -22 9.34 -22 9 C-13.42 9 -4.84 9 4 9 C1.525 8.505 1.525 8.505 -1 8 C-1.125 2.25 -1.125 2.25 0 0 Z " fill="#637582" transform="translate(313,263)"/>
<path d="M0 0 C0 1.98 0 3.96 0 6 C1.32 5.67 2.64 5.34 4 5 C3.9175 5.886875 3.835 6.77375 3.75 7.6875 C4.05208163 11.69008159 5.29727467 13.12835434 8 16 C7.34 16 6.68 16 6 16 C5.67 16.99 5.34 17.98 5 19 C4.60167969 18.26394531 4.20335937 17.52789062 3.79296875 16.76953125 C3.26316406 15.79371094 2.73335938 14.81789062 2.1875 13.8125 C1.40439453 12.36810547 1.40439453 12.36810547 0.60546875 10.89453125 C-0.45041206 8.99086293 -1.55140641 7.11141174 -2.69921875 5.26171875 C-4 3 -4 3 -4 1 C-2 0 -2 0 0 0 Z " fill="#5E7388" transform="translate(259,202)"/>
<path d="M0 0 C0.33 0.66 0.66 1.32 1 2 C1.66 2 2.32 2 3 2 C-1.31016043 10.95187166 -1.31016043 10.95187166 -5 14 C-5.66 14 -6.32 14 -7 14 C-7.33 15.32 -7.66 16.64 -8 18 C-8.671875 16.27734375 -8.671875 16.27734375 -9 14 C-7.890625 11.81640625 -7.890625 11.81640625 -6.25 9.5625 C-5.69570312 8.78132813 -5.14140625 8.00015625 -4.5703125 7.1953125 C-3.79300781 6.10863281 -3.79300781 6.10863281 -3 5 C-1.98511532 3.34235502 -0.97597602 1.68084758 0 0 Z " fill="#40474C" transform="translate(124,312)"/>
<path d="M0 0 C0.33 0.99 0.66 1.98 1 3 C1.66 3.33 2.32 3.66 3 4 C3 6.31 3 8.62 3 11 C2.236875 10.938125 1.47375 10.87625 0.6875 10.8125 C-2.04525312 10.74101915 -2.04525312 10.74101915 -3.8125 12.5 C-4.204375 12.995 -4.59625 13.49 -5 14 C-6 11 -6 11 -4.78515625 8.30078125 C-4.21667969 7.31464844 -3.64820313 6.32851562 -3.0625 5.3125 C-2.49660156 4.31863281 -1.93070313 3.32476562 -1.34765625 2.30078125 C-0.90292969 1.54152344 -0.45820313 0.78226563 0 0 Z " fill="#4C6C81" transform="translate(221,195)"/>
<path d="M0 0 C2.37254954 2.37254954 3.98483473 4.28496054 5.75 7.0625 C6.19859375 7.75472656 6.6471875 8.44695312 7.109375 9.16015625 C7.40328125 9.76730469 7.6971875 10.37445313 8 11 C7.67 11.66 7.34 12.32 7 13 C6.05125 12.835 5.1025 12.67 4.125 12.5 C1.19831099 11.9473365 1.19831099 11.9473365 -1 12 C-0.67 8.04 -0.34 4.08 0 0 Z " fill="#627A8E" transform="translate(274,196)"/>
<path d="M0 0 C0.66 0 1.32 0 2 0 C2.66 0.66 3.32 1.32 4 2 C5.32 2 6.64 2 8 2 C8 4.97 8 7.94 8 11 C4 10 4 10 2.734375 8.4765625 C2.40953125 7.86554688 2.0846875 7.25453125 1.75 6.625 C1.41484375 6.01914062 1.0796875 5.41328125 0.734375 4.7890625 C0 3 0 3 0 0 Z " fill="#565962" transform="translate(375,290)"/>
<path d="M0 0 C10.89 0 21.78 0 33 0 C33 0.33 33 0.66 33 1 C17.655 1.495 17.655 1.495 2 2 C1.67 3.98 1.34 5.96 1 8 C0.01 7.34 -0.98 6.68 -2 6 C-1.49396008 3.83125748 -1.00016187 2.00032373 0 0 Z " fill="#5B6264" transform="translate(227,249)"/>
<path d="M0 0 C1.98 0 3.96 0 6 0 C6.33 2.97 6.66 5.94 7 9 C5.35 8.67 3.7 8.34 2 8 C2 7.34 2 6.68 2 6 C1.34 6 0.68 6 0 6 C0 4.02 0 2.04 0 0 Z " fill="#0A151D" transform="translate(375,284)"/>
<path d="M0 0 C0 0.66 0 1.32 0 2 C0.66 2.33 1.32 2.66 2 3 C0.02 3 -1.96 3 -4 3 C-3.690625 3.928125 -3.690625 3.928125 -3.375 4.875 C-3.25125 5.57625 -3.1275 6.2775 -3 7 C-3.66 7.66 -4.32 8.32 -5 9 C-7.29379749 5.55930376 -8 4.27709699 -8 0 C-5.13822943 -1.43088528 -3.06624227 -0.59991697 0 0 Z " fill="#172E40" transform="translate(379,281)"/>
<path d="M0 0 C3 1 3 1 4.75 3.4375 C5.36875 4.7059375 5.36875 4.7059375 6 6 C5.67 6.66 5.34 7.32 5 8 C4.2575 7.814375 3.515 7.62875 2.75 7.4375 C0.05009037 7.00796892 -1.44631077 7.14877026 -4 8 C-2.87548273 5.0280615 -1.77706209 2.66559313 0 0 Z " fill="#53595F" transform="translate(247,212)"/>
<path d="M0 0 C1.32 0 2.64 0 4 0 C2.63408831 3.54243452 1.09068516 6.92627929 -0.625 10.3125 C-1.07101563 11.19550781 -1.51703125 12.07851563 -1.9765625 12.98828125 C-2.31429687 13.65214844 -2.65203125 14.31601562 -3 15 C-3.66 14.34 -4.32 13.68 -5 13 C-4.625 9.375 -4.625 9.375 -4 6 C-2.02 6.495 -2.02 6.495 0 7 C0 4.69 0 2.38 0 0 Z " fill="#3E444A" transform="translate(190,291)"/>
<path d="M0 0 C2.97 0 5.94 0 9 0 C9 0.33 9 0.66 9 1 C7.35 1 5.7 1 4 1 C3.67 1.99 3.34 2.98 3 4 C1.97895449 3.02149805 0.9793879 2.02019573 0 1 C0 0.67 0 0.34 0 0 Z M-2 3 C-0.68 3.33 0.64 3.66 2 4 C2.33 5.32 2.66 6.64 3 8 C2.34 8 1.68 8 1 8 C0.67 8.66 0.34 9.32 0 10 C-1.32 10 -2.64 10 -4 10 C-3.125 5.25 -3.125 5.25 -2 3 Z " fill="#141A1C" transform="translate(228,250)"/>
<path d="M0 0 C1.65 0.33 3.3 0.66 5 1 C4.835 1.598125 4.67 2.19625 4.5 2.8125 C3.8885876 5.11344336 3.8885876 5.11344336 4 8 C2.35 8 0.7 8 -1 8 C-1.625 5.6875 -1.625 5.6875 -2 3 C-1.34 2.01 -0.68 1.02 0 0 Z " fill="#273236" transform="translate(202,230)"/>
<path d="M0 0 C2.64 0.33 5.28 0.66 8 1 C6.87548273 3.9719385 5.77706209 6.33440687 4 9 C4 8.01 4 7.02 4 6 C2.68 6 1.36 6 0 6 C0 4.02 0 2.04 0 0 Z " fill="#3C515F" transform="translate(225,217)"/>
<path d="M0 0 C0.37769531 0.65484375 0.75539062 1.3096875 1.14453125 1.984375 C2.85596306 4.26903428 2.85596306 4.26903428 5.69921875 4.390625 C6.68535156 4.34421875 7.67148438 4.2978125 8.6875 4.25 C9.68136719 4.21390625 10.67523438 4.1778125 11.69921875 4.140625 C12.45847656 4.09421875 13.21773437 4.0478125 14 4 C14.33 3.34 14.66 2.68 15 2 C15.66 2 16.32 2 17 2 C17 2.66 17 3.32 17 4 C18.65 3.67 20.3 3.34 22 3 C22 3.99 22 4.98 22 6 C14.74 6 7.48 6 0 6 C0 4.02 0 2.04 0 0 Z " fill="#0D1218" transform="translate(148,200)"/>
<path d="M0 0 C0.33 0.66 0.66 1.32 1 2 C1.66 2.33 2.32 2.66 3 3 C2.34 4.32 1.68 5.64 1 7 C2.65 7.33 4.3 7.66 6 8 C6 10.64 6 13.28 6 16 C4.99152789 14.67306301 3.99450461 13.33743723 3 12 C2.54367187 11.45601562 2.08734375 10.91203125 1.6171875 10.3515625 C0.22226503 8.60600378 -0.99992976 7.00014047 -2 5 C-1.3125 2.0625 -1.3125 2.0625 0 0 Z " fill="#414548" transform="translate(259,145)"/>
<path d="M0 0 C0.66 0.33 1.32 0.66 2 1 C2 1.66 2 2.32 2 3 C2.66 3 3.32 3 4 3 C3.67 5.31 3.34 7.62 3 10 C2.01 10.33 1.02 10.66 0 11 C-1.82941851 7.23355012 -2.23162684 5.03077875 -1 1 C-0.67 0.67 -0.34 0.34 0 0 Z " fill="#0B1116" transform="translate(263,120)"/>
<path d="M0 0 C0.66 1.65 1.32 3.3 2 5 C-1 7 -1 7 -4.0625 6.75 C-7 6 -7 6 -9 4 C-2.25 0 -2.25 0 0 0 Z " fill="#497189" transform="translate(259,375)"/>
<path d="M0 0 C0.66 0.33 1.32 0.66 2 1 C1.67 1.66 1.34 2.32 1 3 C5.29 3 9.58 3 14 3 C13.67 3.66 13.34 4.32 13 5 C8.05 5 3.1 5 -2 5 C-2.33 4.34 -2.66 3.68 -3 3 C-2.01 2.01 -1.02 1.02 0 0 Z " fill="#3D4044" transform="translate(199,304)"/>
<path d="M0 0 C0.33 0 0.66 0 1 0 C1.125 2.875 1.125 2.875 1 6 C0.34 6.66 -0.32 7.32 -1 8 C-1.16687448 10.58354218 -1.16687448 10.58354218 -1 13 C-1.66 13 -2.32 13 -3 13 C-3 13.66 -3 14.32 -3 15 C-4.32 15.33 -5.64 15.66 -7 16 C-5.35433477 10.31497465 -2.70967216 5.23318364 0 0 Z " fill="#494E53" transform="translate(184,263)"/>
<path d="M0 0 C0.33 0 0.66 0 1 0 C1.28883414 4.06534057 0.57875609 6.33058355 -1.5 9.8125 C-1.9640625 10.60269531 -2.428125 11.39289063 -2.90625 12.20703125 C-3.44765625 13.09455078 -3.44765625 13.09455078 -4 14 C-4.66 12.68 -5.32 11.36 -6 10 C-5.01 9.01 -4.02 8.02 -3 7 C-3.99 6.67 -4.98 6.34 -6 6 C-6 5.01 -6 4.02 -6 3 C-4.68 2.67 -3.36 2.34 -2 2 C-2 2.66 -2 3.32 -2 4 C-1.34 4 -0.68 4 0 4 C0 2.68 0 1.36 0 0 Z " fill="#50575B" transform="translate(137,263)"/>
<path d="M0 0 C0.33 0 0.66 0 1 0 C1 3.63 1 7.26 1 11 C1.33 10.34 1.66 9.68 2 9 C2.66 9 3.32 9 4 9 C4.33 9.99 4.66 10.98 5 12 C8.3 12.33 11.6 12.66 15 13 C15 13.33 15 13.66 15 14 C13.06403108 14.22211116 11.12610672 14.42722992 9.1875 14.625 C7.56908203 14.79902344 7.56908203 14.79902344 5.91796875 14.9765625 C3 15 3 15 0 13 C-0.29296875 9.9609375 -0.29296875 9.9609375 -0.1875 6.375 C-0.16042969 5.18648437 -0.13335937 3.99796875 -0.10546875 2.7734375 C-0.07066406 1.85820312 -0.03585938 0.94296875 0 0 Z " fill="#0C0F17" transform="translate(242,224)"/>
<path d="M0 0 C2.63656296 1.31828148 3.24665334 2.82358672 4.6875 5.375 C5.14511719 6.16648438 5.60273438 6.95796875 6.07421875 7.7734375 C7 10 7 10 6 13 C5.67 12.34 5.34 11.68 5 11 C3.35 11.33 1.7 11.66 0 12 C0 8.04 0 4.08 0 0 Z " fill="#5A7389" transform="translate(291,225)"/>
<path d="M0 0 C0.66 0.33 1.32 0.66 2 1 C-0.37127846 4.6051144 -2.44834816 7.46200167 -6.625 8.91015625 C-9.08418272 9.38173248 -11.50823704 9.7587028 -14 10 C-9.57557408 6.28919117 -4.82596069 3.15422267 0 0 Z " fill="#556B81" transform="translate(340,324)"/>
<path d="M0 0 C1.65 0 3.3 0 5 0 C5 1.32 5 2.64 5 4 C4.01 4 3.02 4 2 4 C2 4.66 2 5.32 2 6 C-0.31 6.33 -2.62 6.66 -5 7 C-4.67 5.68 -4.34 4.36 -4 3 C-3.01 3 -2.02 3 -1 3 C-0.67 2.01 -0.34 1.02 0 0 Z " fill="#10181F" transform="translate(220,101)"/>
<path d="M0 0 C2 3 2 3 2 6 C0.68945377 7.35573748 -0.64748503 8.68612831 -2 10 C-2.7734375 11.3303125 -2.7734375 11.3303125 -3.5625 12.6875 C-5 15 -5 15 -8 16 C-6.57250019 12.20950293 -4.83763458 8.72877544 -2.875 5.1875 C-2.33617187 4.21167969 -1.79734375 3.23585937 -1.2421875 2.23046875 C-0.83226562 1.49441406 -0.42234375 0.75835937 0 0 Z " fill="#5A6369" transform="translate(211,213)"/>
<path d="M0 0 C0.66 0 1.32 0 2 0 C2 0.66 2 1.32 2 2 C1.34 2 0.68 2 0 2 C0.0825 2.886875 0.165 3.77375 0.25 4.6875 C-0.05208163 8.69008159 -1.29727467 10.12835434 -4 13 C-4.66 12.34 -5.32 11.68 -6 11 C-6 10.01 -6 9.02 -6 8 C-5.34 8 -4.68 8 -4 8 C-3.71125 7.05125 -3.4225 6.1025 -3.125 5.125 C-2 2 -2 2 0 0 Z " fill="#4F6A81" transform="translate(239,201)"/>
<path d="M0 0 C-2.80472516 3.29967665 -6.16918209 5.08459104 -10 7 C-10.99 6.67 -11.98 6.34 -13 6 C-5.71812081 -1.90604027 -5.71812081 -1.90604027 0 0 Z " fill="#54697B" transform="translate(322,362)"/>
<path d="M0 0 C0.33 0 0.66 0 1 0 C1.36490009 6.32493484 1.36490009 6.32493484 -0.25 9.3125 C-2.06492365 11.06260495 -3.67942581 12.0397624 -6 13 C-4.58707905 8.1725201 -2.57025846 4.2837641 0 0 Z " fill="#4A4F52" transform="translate(148,267)"/>
<path d="M0 0 C4.8274799 1.41292095 8.7162359 3.42974154 13 6 C8.99068358 7.60372657 5.94176618 6.38691773 2 5 C1.34 4.34 0.68 3.68 0 3 C0 2.01 0 1.02 0 0 Z " fill="#556E85" transform="translate(321,127)"/>
<path d="M0 0 C1.98 0 3.96 0 6 0 C5.67 0.99 5.34 1.98 5 3 C5.66 3.33 6.32 3.66 7 4 C7.625 6.5625 7.625 6.5625 8 9 C7.01 9 6.02 9 5 9 C3.61328125 7.28515625 3.61328125 7.28515625 2.3125 5.0625 C1.65701172 3.96615234 1.65701172 3.96615234 0.98828125 2.84765625 C0 1 0 1 0 0 Z " fill="#546B80" transform="translate(265,221)"/>
<path d="M0 0 C1.76462683 3.08809695 2 4.23312136 2 8 C0.35 8.33 -1.3 8.66 -3 9 C-3.33 8.34 -3.66 7.68 -4 7 C-3.22265625 5.2734375 -3.22265625 5.2734375 -2.0625 3.375 C-1.381875 2.26125 -0.70125 1.1475 0 0 Z " fill="#34383D" transform="translate(195,179)"/>
<path d="M0 0 C2.625 0.9375 2.625 0.9375 5 2 C5 1.34 5 0.68 5 0 C6.32 0 7.64 0 9 0 C8.34 1.98 7.68 3.96 7 6 C3.54074837 4.7508258 0.85306797 3.32472205 -2 1 C-1.34 0.67 -0.68 0.34 0 0 Z " fill="#4A4F52" transform="translate(127,334)"/>
<path d="M0 0 C0.66 0 1.32 0 2 0 C2.375 2.6875 2.375 2.6875 2 6 C0.176017 8.06398076 -1.72763839 9.39041053 -4 11 C-4.33 10.34 -4.66 9.68 -5 9 C-4.00390625 6.8359375 -4.00390625 6.8359375 -2.5625 4.375 C-2.08941406 3.55773437 -1.61632812 2.74046875 -1.12890625 1.8984375 C-0.75636719 1.27195312 -0.38382813 0.64546875 0 0 Z " fill="#444C4F" transform="translate(137,288)"/>
<path d="M0 0 C0.33 0 0.66 0 1 0 C0.53579745 4.73486599 -0.0609895 8.19017158 -3 12 C-5.1875 13.3125 -5.1875 13.3125 -7 14 C-5.23570801 9.02790438 -2.6060834 4.56561939 0 0 Z " fill="#5D7C95" transform="translate(234,171)"/>
<path d="M0 0 C0.66 0 1.32 0 2 0 C0.45454854 5.47932789 -2.15543212 10.11429181 -5 15 C-5.33 13.68 -5.66 12.36 -6 11 C-5.34 11 -4.68 11 -4 11 C-4.061875 10.2575 -4.12375 9.515 -4.1875 8.75 C-3.9665753 5.50977106 -3.08256825 4.41577917 -1 2 C-0.67 1.34 -0.34 0.68 0 0 Z " fill="#5A5E63" transform="translate(177,319)"/>
<path d="M0 0 C0.66 0 1.32 0 2 0 C1.5205537 4.21912747 0.83374881 6.79663178 -2 10 C-2 9.34 -2 8.68 -2 8 C-3.32 7.67 -4.64 7.34 -6 7 C-5.34 6.01 -4.68 5.02 -4 4 C-4 4.66 -4 5.32 -4 6 C-3.01 6 -2.02 6 -1 6 C-0.67 4.02 -0.34 2.04 0 0 Z " fill="#363D3F" transform="translate(169,332)"/>
<path d="M0 0 C1 3 1 3 -0.21484375 5.69921875 C-0.78332031 6.68535156 -1.35179687 7.67148437 -1.9375 8.6875 C-2.50339844 9.68136719 -3.06929687 10.67523438 -3.65234375 11.69921875 C-4.31943359 12.83810547 -4.31943359 12.83810547 -5 14 C-7 11 -7 11 -7 9 C-6.34 8.67 -5.68 8.34 -5 8 C-4.67 7.01 -4.34 6.02 -4 5 C-3.34 5 -2.68 5 -2 5 C-2 4.01 -2 3.02 -2 2 C-1.34 2 -0.68 2 0 2 C0 1.34 0 0.68 0 0 Z " fill="#63676C" transform="translate(163,281)"/>
<path d="M0 0 C0.33 0 0.66 0 1 0 C1.33 2.31 1.66 4.62 2 7 C-1.75 9 -1.75 9 -4 9 C-2.94124926 5.59687262 -1.99097846 2.98646769 0 0 Z " fill="#40494C" transform="translate(157,250)"/>
<path d="M0 0 C2.4375 0.375 2.4375 0.375 5 1 C5.33 1.66 5.66 2.32 6 3 C4.5437328 3.36256858 3.08488815 3.71479793 1.625 4.0625 C0.40683594 4.35833984 0.40683594 4.35833984 -0.8359375 4.66015625 C-3 5 -3 5 -5 4 C-4.67 3.01 -4.34 2.02 -4 1 C-2.02 1.495 -2.02 1.495 0 2 C0 1.34 0 0.68 0 0 Z " fill="#4B6986" transform="translate(286,107)"/>
<path d="M0 0 C1.32 1.65 2.64 3.3 4 5 C3.67 5.66 3.34 6.32 3 7 C2.34 6.67 1.68 6.34 1 6 C1 6.66 1 7.32 1 8 C-0.32 7.67 -1.64 7.34 -3 7 C-1.125 2.25 -1.125 2.25 0 0 Z " fill="#547388" transform="translate(300,240)"/>
<path d="M0 0 C1.13480527 3.60993172 1.10015767 6.9842327 1.0625 10.75 C1.05347656 11.92046875 1.04445312 13.0909375 1.03515625 14.296875 C1.02355469 15.18890625 1.01195312 16.0809375 1 17 C1.66 17.33 2.32 17.66 3 18 C3 18.66 3 19.32 3 20 C1.68 19.67 0.36 19.34 -1 19 C-1.02690104 16.20826945 -1.04679053 13.41679652 -1.0625 10.625 C-1.07087891 9.8309375 -1.07925781 9.036875 -1.08789062 8.21875 C-1.11328125 2.2265625 -1.11328125 2.2265625 0 0 Z " fill="#72737A" transform="translate(242,220)"/>
<path d="M0 0 C0.66 0.33 1.32 0.66 2 1 C1.48964169 5.3890815 0.47785723 8.33708062 -2 12 C-2.33 10.68 -2.66 9.36 -3 8 C-2.34 8 -1.68 8 -1 8 C-1.20625 7.236875 -1.4125 6.47375 -1.625 5.6875 C-2 3 -2 3 0 0 Z " fill="#637C8A" transform="translate(242,195)"/>
<path d="M0 0 C0.33 0.99 0.66 1.98 1 3 C0.01 3 -0.98 3 -2 3 C-1.67 3.99 -1.34 4.98 -1 6 C-1.99 6.33 -2.98 6.66 -4 7 C-4 6.34 -4 5.68 -4 5 C-4.99 4.67 -5.98 4.34 -7 4 C-5 1 -5 1 -2.375 0.3125 C-1.59125 0.209375 -0.8075 0.10625 0 0 Z " fill="#46687F" transform="translate(275,385)"/>
<path d="M0 0 C1.32 0 2.64 0 4 0 C4 1.98 4 3.96 4 6 C4.66 6.33 5.32 6.66 6 7 C5.01 7 4.02 7 3 7 C3 6.34 3 5.68 3 5 C2.401875 4.896875 1.80375 4.79375 1.1875 4.6875 C-1.28243264 3.91123545 -2.32251235 2.92911079 -4 1 C-2.68 1.33 -1.36 1.66 0 2 C0 1.34 0 0.68 0 0 Z " fill="#4B5153" transform="translate(155,348)"/>
<path d="M0 0 C1.98 0.66 3.96 1.32 6 2 C6 4.64 6 7.28 6 10 C3.38275905 7.63202009 1.67138271 5.10399646 0 2 C0 1.34 0 0.68 0 0 Z " fill="#637A8D" transform="translate(271,230)"/>
<path d="M0 0 C0.598125 0.226875 1.19625 0.45375 1.8125 0.6875 C1.4825 1.6775 1.1525 2.6675 0.8125 3.6875 C-2.25 4.875 -2.25 4.875 -5.1875 5.6875 C-5.1875 2.6875 -5.1875 2.6875 -3.9375 0.9375 C-2.1875 -0.3125 -2.1875 -0.3125 0 0 Z " fill="#4F687B" transform="translate(305.1875,369.3125)"/>
<path d="M0 0 C-2.86181411 3.16305771 -6.2099782 5.1049891 -10 7 C-10.66 6.34 -11.32 5.68 -12 5 C-8.36219404 0.99841344 -5.42711258 -0.30150625 0 0 Z " fill="#484F56" transform="translate(378,331)"/>
<path d="M0 0 C0.66 0.33 1.32 0.66 2 1 C1.64766839 6.4611399 1.64766839 6.4611399 1 9 C-1.0625 10.5 -1.0625 10.5 -3 11 C-2.66666667 9.66666667 -2.33333333 8.33333333 -2 7 C-1.835 6.319375 -1.67 5.63875 -1.5 4.9375 C-1.07018312 3.2719596 -0.54394553 1.63183658 0 0 Z " fill="#213139" transform="translate(213,212)"/>
<path d="M0 0 C1.5 1.1875 1.5 1.1875 3 3 C3.1875 5.6875 3.1875 5.6875 3 8 C1.68 8 0.36 8 -1 8 C-1.125 2.25 -1.125 2.25 0 0 Z " fill="#436380" transform="translate(313,263)"/>
<path d="M0 0 C0.9659657 2.60810739 1.02770914 3.89420147 0.3125 6.625 C-1.16625774 9.30084735 -2.17750049 9.96508351 -5 11 C-3.77472971 6.94718288 -2.30119506 3.55639236 0 0 Z " fill="#47494D" transform="translate(174,218)"/>
<path d="M0 0 C-0.33 1.32 -0.66 2.64 -1 4 C-0.34 4.33 0.32 4.66 1 5 C-1.64 5 -4.28 5 -7 5 C-5.22678182 1.07358831 -4.52021524 0 0 0 Z " fill="#476A7E" transform="translate(271,368)"/>
<path d="M0 0 C3.3 1.65 6.6 3.3 10 5 C10 5.33 10 5.66 10 6 C7.125 6.125 7.125 6.125 4 6 C3.34 5.34 2.68 4.68 2 4 C0.68252676 3.30251417 -0.64914193 2.63040043 -2 2 C-1.34 2 -0.68 2 0 2 C0 1.34 0 0.68 0 0 Z " fill="#555B5E" transform="translate(227,366)"/>
<path d="M0 0 C-4.95 2.475 -4.95 2.475 -10 5 C-10.33 4.01 -10.66 3.02 -11 2 C-4.5 -1.125 -4.5 -1.125 0 0 Z " fill="#5C6F7F" transform="translate(333,357)"/>
<path d="M0 0 C2.97 0 5.94 0 9 0 C7.515 1.98 7.515 1.98 6 4 C3.03 3.505 3.03 3.505 0 3 C0 2.01 0 1.02 0 0 Z " fill="#161E1F" transform="translate(256,251)"/>
<path d="M0 0 C1.98 0 3.96 0 6 0 C2.80009492 2.74277578 -0.00499382 4.6302836 -4 6 C-3.67 4.68 -3.34 3.36 -3 2 C-2.01 2 -1.02 2 0 2 C0 1.34 0 0.68 0 0 Z " fill="#494B4F" transform="translate(154,162)"/>
<path d="M0 0 C2.475 0.99 2.475 0.99 5 2 C5 2.99 5 3.98 5 5 C2.125 5.125 2.125 5.125 -1 5 C-1.66 4.34 -2.32 3.68 -3 3 C-2 2 -1 1 0 0 Z " fill="#546F88" transform="translate(315,123)"/>
<path d="M0 0 C3.77545388 1.09068668 6.47043472 1.9083091 9 5 C7.35 5.33 5.7 5.66 4 6 C4 5.34 4 4.68 4 4 C2.68 3.67 1.36 3.34 0 3 C0 2.01 0 1.02 0 0 Z " fill="#3F4548" transform="translate(239,373)"/>
<path d="M0 0 C1.32 0 2.64 0 4 0 C3.5359375 1.1446875 3.5359375 1.1446875 3.0625 2.3125 C2.32106407 4.18789677 1.63771783 6.08684652 1 8 C0.34 8 -0.32 8 -1 8 C-0.67 5.36 -0.34 2.72 0 0 Z " fill="#454950" transform="translate(182,306)"/>
<path d="M0 0 C1 3 1 3 0.22265625 4.82421875 C-0.8515625 6.54947917 -1.92578125 8.27473958 -3 10 C-3.33 10 -3.66 10 -4 10 C-4.33 7.69 -4.66 5.38 -5 3 C-3.35 2.67 -1.7 2.34 0 2 C0 1.34 0 0.68 0 0 Z " fill="#60676E" transform="translate(206,266)"/>
<path d="M0 0 C0.66 0 1.32 0 2 0 C5 5.625 5 5.625 5 9 C4.34 9 3.68 9 3 9 C-0.22265625 3.7265625 -0.22265625 3.7265625 -1 2 C-0.67 1.34 -0.34 0.68 0 0 Z " fill="#A9BAC3" transform="translate(260,110)"/>
<path d="M0 0 C0.28875 0.598125 0.5775 1.19625 0.875 1.8125 C2.04742026 4.19327792 2.04742026 4.19327792 4 7 C4.125 10.1875 4.125 10.1875 4 13 C3.7525 12.484375 3.505 11.96875 3.25 11.4375 C1.60418384 8.22815849 -0.1976096 5.12414336 -2 2 C-1.34 2 -0.68 2 0 2 C0 1.34 0 0.68 0 0 Z " fill="#7A96A3" transform="translate(262,102)"/>
<path d="M0 0 C0.33 0.66 0.66 1.32 1 2 C0.67 2.66 0.34 3.32 0 4 C-1.66666667 4.33333333 -3.33333333 4.66666667 -5 5 C-5.33 5.66 -5.66 6.32 -6 7 C-7.65 7 -9.3 7 -11 7 C-7.53258866 4.04250209 -4.13126473 1.92151848 0 0 Z " fill="#54595C" transform="translate(225,97)"/>
<path d="M0 0 C0.66 0.33 1.32 0.66 2 1 C1.34 2.32 0.68 3.64 0 5 C-2.9375 4.625 -2.9375 4.625 -6 4 C-6.33 3.34 -6.66 2.68 -7 2 C-4.525 2.495 -4.525 2.495 -2 3 C-2 2.34 -2 1.68 -2 1 C-1.34 0.67 -0.68 0.34 0 0 Z " fill="#444A53" transform="translate(252,363)"/>
<path d="M0 0 C0.33 0 0.66 0 1 0 C0.38461538 6.52307692 0.38461538 6.52307692 -1.5625 8.9375 C-2.036875 9.288125 -2.51125 9.63875 -3 10 C-3.33 9.34 -3.66 8.68 -4 8 C-3.22265625 6.0546875 -3.22265625 6.0546875 -2.0625 3.875 C-1.49208984 2.78832031 -1.49208984 2.78832031 -0.91015625 1.6796875 C-0.60980469 1.12539063 -0.30945313 0.57109375 0 0 Z " fill="#585D5F" transform="translate(146,335)"/>
<path d="M0 0 C0.33 0.66 0.66 1.32 1 2 C1.66 2.33 2.32 2.66 3 3 C1 6 1 6 -1.125 6.6875 C-1.74375 6.790625 -2.3625 6.89375 -3 7 C-2.625 4.0625 -2.625 4.0625 -2 1 C-1.34 0.67 -0.68 0.34 0 0 Z " fill="#232A2C" transform="translate(178,278)"/>
<path d="M0 0 C0 1.98 0 3.96 0 6 C0.66 6.33 1.32 6.66 2 7 C1.01 7.33 0.02 7.66 -1 8 C-4 3.25 -4 3.25 -4 1 C-2 0 -2 0 0 0 Z " fill="#638395" transform="translate(259,202)"/>
<path d="M0 0 C2.875 -0.125 2.875 -0.125 6 0 C6.66 0.66 7.32 1.32 8 2 C7.625 4.125 7.625 4.125 7 6 C7 5.34 7 4.68 7 4 C6.401875 3.896875 5.80375 3.79375 5.1875 3.6875 C2.71756736 2.91123545 1.67748765 1.92911079 0 0 Z " fill="#516576" transform="translate(353,172)"/>
<path d="M0 0 C0.144375 0.61875 0.28875 1.2375 0.4375 1.875 C0.93152225 4.03258322 0.93152225 4.03258322 2 6 C-1.75 9 -1.75 9 -4 9 C-2.80100302 5.9168649 -1.52299523 2.93720508 0 0 Z " fill="#5A7888" transform="translate(241,158)"/>
<path d="M0 0 C0.99 0.33 1.98 0.66 3 1 C3 1.99 3 2.98 3 4 C2.01 4 1.02 4 0 4 C-0.33 4.99 -0.66 5.98 -1 7 C-1.66 7 -2.32 7 -3 7 C-3.33 7.66 -3.66 8.32 -4 9 C-3.35455571 5.51460083 -1.89865603 2.97180943 0 0 Z " fill="#2F3439" transform="translate(277,142)"/>
<path d="M0 0 C0.66 0.99 1.32 1.98 2 3 C1.01 3.495 1.01 3.495 0 4 C0.66 4.66 1.32 5.32 2 6 C0.68 6.33 -0.64 6.66 -2 7 C-2.66 5.68 -3.32 4.36 -4 3 C-3.01 3 -2.02 3 -1 3 C-0.67 2.01 -0.34 1.02 0 0 Z " fill="#2B4D64" transform="translate(286,244)"/>
<path d="M0 0 C1 2 1 2 0.25 4.9375 C-0.89726872 7.74830836 -1.69701628 9.1157406 -4 11 C-4 7.80389448 -3.45328458 6.58282374 -2 3.8125 C-1.62875 3.09707031 -1.2575 2.38164062 -0.875 1.64453125 C-0.441875 0.83048828 -0.441875 0.83048828 0 0 Z " fill="#535C61" transform="translate(195,243)"/>
<path d="M0 0 C1.65 1.65 3.3 3.3 5 5 C4.01 5.495 4.01 5.495 3 6 C2.34 5.67 1.68 5.34 1 5 C0.67 5.66 0.34 6.32 0 7 C-0.66 5.35 -1.32 3.7 -2 2 C-1.34 1.34 -0.68 0.68 0 0 Z " fill="#404A52" transform="translate(254,222)"/>
<path d="M0 0 C0.6875 1.6875 0.6875 1.6875 1 4 C-0.3125 6.75 -0.3125 6.75 -2 9 C-2.66 9 -3.32 9 -4 9 C-2.94124926 5.59687262 -1.99097846 2.98646769 0 0 Z " fill="#4C5156" transform="translate(258,129)"/>
<path d="M0 0 C0.99 0.495 0.99 0.495 2 1 C1.67 1.66 1.34 2.32 1 3 C1.66 3 2.32 3 3 3 C3 3.66 3 4.32 3 5 C4.65 5.33 6.3 5.66 8 6 C8 6.66 8 7.32 8 8 C2.25 6.125 2.25 6.125 0 5 C0 3.35 0 1.7 0 0 Z " fill="#6E8293" transform="translate(276,124)"/>
<path d="M0 0 C0.66 0.33 1.32 0.66 2 1 C0.87548273 3.9719385 -0.22293791 6.33440687 -2 9 C-2.66 7.35 -3.32 5.7 -4 4 C-3.34 3.67 -2.68 3.34 -2 3 C-2.33 2.34 -2.66 1.68 -3 1 C-2.01 0.67 -1.02 0.34 0 0 Z " fill="#42474B" transform="translate(253,114)"/>
<path d="M0 0 C0.66 0 1.32 0 2 0 C0.25 5.75 0.25 5.75 -2 8 C-2.33 5.69 -2.66 3.38 -3 1 C-2.01 1.495 -2.01 1.495 -1 2 C-0.67 1.34 -0.34 0.68 0 0 Z " fill="#4B5457" transform="translate(124,288)"/>
<path d="M0 0 C0.99 0.33 1.98 0.66 3 1 C2.34 2.98 1.68 4.96 1 7 C0.34 7 -0.32 7 -1 7 C-1.66 5.68 -2.32 4.36 -3 3 C-2.01 2.01 -1.02 1.02 0 0 Z " fill="#24292F" transform="translate(195,281)"/>
<path d="M0 0 C0.33 0.66 0.66 1.32 1 2 C4.02934491 2.65772428 4.02934491 2.65772428 7 3 C7 3.33 7 3.66 7 4 C3.7 4 0.4 4 -3 4 C-3 3.34 -3 2.68 -3 2 C-2.01 1.34 -1.02 0.68 0 0 Z " fill="#111519" transform="translate(220,269)"/>
<path d="M0 0 C0.99 0.33 1.98 0.66 3 1 C3.6875 3.0625 3.6875 3.0625 4 5 C2.68 5.33 1.36 5.66 0 6 C-1 3 -1 3 0 0 Z " fill="#516C83" transform="translate(309,258)"/>
<path d="M0 0 C2.39763185 2.39763185 2.34280586 3.33273498 2.625 6.625 C2.69976562 7.44226563 2.77453125 8.25953125 2.8515625 9.1015625 C2.90054687 9.72804688 2.94953125 10.35453125 3 11 C2.01 10.34 1.02 9.68 0 9 C-0.29296875 6.8359375 -0.29296875 6.8359375 -0.1875 4.375 C-0.16042969 3.55773437 -0.13335937 2.74046875 -0.10546875 1.8984375 C-0.05326172 0.95871094 -0.05326172 0.95871094 0 0 Z " fill="#5A7787" transform="translate(359,252)"/>
<path d="M0 0 C0.66 0 1.32 0 2 0 C2.66 2.31 3.32 4.62 4 7 C2.35 7 0.7 7 -1 7 C-0.67 4.69 -0.34 2.38 0 0 Z " fill="#355C79" transform="translate(274,201)"/>
<path d="M0 0 C0.66 0 1.32 0 2 0 C2.99 2.31 3.98 4.62 5 7 C4.34 7.66 3.68 8.32 3 9 C0 3.375 0 3.375 0 0 Z " fill="#557589" transform="translate(265,182)"/>
<path d="M0 0 C0 0.99 0 1.98 0 3 C-0.99 3.495 -0.99 3.495 -2 4 C-2.33 4.99 -2.66 5.98 -3 7 C-3.66 7 -4.32 7 -5 7 C-5.33 5.68 -5.66 4.36 -6 3 C-5.34 3 -4.68 3 -4 3 C-4 2.34 -4 1.68 -4 1 C-2 0 -2 0 0 0 Z " fill="#141B1E" transform="translate(153,161)"/>
<path d="M0 0 C-2.85306797 2.32472205 -5.54074837 3.7508258 -9 5 C-9 4.01 -9 3.02 -9 2 C-5.5647952 -0.29013653 -4.014669 -0.17842973 0 0 Z " fill="#3F4147" transform="translate(197,141)"/>
<path d="M0 0 C3.77545388 1.09068668 6.47043472 1.9083091 9 5 C5.93606987 5.25532751 4.36766788 5.21861333 1.6875 3.625 C1.130625 3.08875 0.57375 2.5525 0 2 C0 1.34 0 0.68 0 0 Z " fill="#6D8095" transform="translate(294,111)"/>
<path d="M0 0 C0.66 0.33 1.32 0.66 2 1 C1.67 2.32 1.34 3.64 1 5 C-1.31 5 -3.62 5 -6 5 C-4.06745228 2.9754262 -2.36841312 1.57894208 0 0 Z " fill="#58758B" transform="translate(317,338)"/>
<path d="M0 0 C0.66 0 1.32 0 2 0 C0.9024777 2.99324263 0.32317108 3.84610901 -2.625 5.25 C-3.40875 5.4975 -4.1925 5.745 -5 6 C-5 4.68 -5 3.36 -5 2 C-3.35 2 -1.7 2 0 2 C0 1.34 0 0.68 0 0 Z " fill="#657A98" transform="translate(359,338)"/>
<path d="M0 0 C1.32 1.32 2.64 2.64 4 4 C3.34 5.32 2.68 6.64 2 8 C0.4375 5.6875 0.4375 5.6875 -1 3 C-0.67 2.01 -0.34 1.02 0 0 Z " fill="#424A51" transform="translate(372,282)"/>
<path d="M0 0 C4.62 0 9.24 0 14 0 C13.67 0.99 13.34 1.98 13 3 C8.71 2.34 4.42 1.68 0 1 C0 0.67 0 0.34 0 0 Z " fill="#0F1418" transform="translate(246,284)"/>
<path d="M0 0 C1.125 1.75 1.125 1.75 2 4 C1.125 6.25 1.125 6.25 0 8 C-0.66 8 -1.32 8 -2 8 C-1.125 1.125 -1.125 1.125 0 0 Z " fill="#12181C" transform="translate(325,253)"/>
<path d="M0 0 C1.5625 1.25 1.5625 1.25 3 3 C2.6875 5.1875 2.6875 5.1875 2 7 C1.67 6.34 1.34 5.68 1 5 C0.34 5 -0.32 5 -1 5 C-1.33 4.01 -1.66 3.02 -2 2 C-1.34 1.34 -0.68 0.68 0 0 Z " fill="#373E43" transform="translate(180,242)"/>
<path d="M0 0 C0.66 0 1.32 0 2 0 C2.33 2.97 2.66 5.94 3 9 C2.01 8.67 1.02 8.34 0 8 C-1.125 2.25 -1.125 2.25 0 0 Z " fill="#416179" transform="translate(289,223)"/>
<path d="M0 0 C0.66 0.33 1.32 0.66 2 1 C2 1.66 2 2.32 2 3 C2.66 3 3.32 3 4 3 C3 5 3 5 1 6 C0.01 5.67 -0.98 5.34 -2 5 C-1.34 3.35 -0.68 1.7 0 0 Z " fill="#4C4C50" transform="translate(263,120)"/>
<path d="M0 0 C0.66 0.33 1.32 0.66 2 1 C1.2884375 1.6496875 1.2884375 1.6496875 0.5625 2.3125 C-1.23686957 4.02309613 -1.23686957 4.02309613 -2 7 C-2.99 6.67 -3.98 6.34 -5 6 C-4.75 4.125 -4.75 4.125 -4 2 C-2.0625 0.6875 -2.0625 0.6875 0 0 Z " fill="#51585A" transform="translate(190,117)"/>
<path d="M0 0 C6.75 0.875 6.75 0.875 9 2 C9 2.99 9 3.98 9 5 C5.22454612 3.90931332 2.52956528 3.0916909 0 0 Z " fill="#4D5256" transform="translate(239,398)"/>
<path d="M0 0 C0.598125 0.350625 1.19625 0.70125 1.8125 1.0625 C1.8125 2.0525 1.8125 3.0425 1.8125 4.0625 C-1.10267292 2.98848892 -2.96560176 2.28439824 -5.1875 0.0625 C-2.1875 -0.9375 -2.1875 -0.9375 0 0 Z " fill="#41464C" transform="translate(179.1875,361.9375)"/>
<path d="M0 0 C2.97 0.495 2.97 0.495 6 1 C5.01 1.495 5.01 1.495 4 2 C3.67 2.99 3.34 3.98 3 5 C2.01 5 1.02 5 0 5 C0 3.35 0 1.7 0 0 Z " fill="#10181D" transform="translate(146,341)"/>
<path d="M0 0 C1.8125 0.125 1.8125 0.125 4 1 C5.75 4.0625 5.75 4.0625 7 7 C6.34 7 5.68 7 5 7 C5 6.34 5 5.68 5 5 C4.360625 4.731875 3.72125 4.46375 3.0625 4.1875 C1 3 1 3 0 0 Z " fill="#44464B" transform="translate(332,299)"/>
<path d="M0 0 C0.33 0.66 0.66 1.32 1 2 C-0.4375 4.625 -0.4375 4.625 -2 7 C-2.33 6.34 -2.66 5.68 -3 5 C-3.66 4.67 -4.32 4.34 -5 4 C-3.35 2.68 -1.7 1.36 0 0 Z " fill="#575A5F" transform="translate(167,274)"/>
<path d="M0 0 C2.31 0 4.62 0 7 0 C6.01 2.31 5.02 4.62 4 7 C3.34 6.34 2.68 5.68 2 5 C2 4.01 2 3.02 2 2 C1.34 2 0.68 2 0 2 C0 1.34 0 0.68 0 0 Z " fill="#4E5457" transform="translate(317,250)"/>
<path d="M0 0 C0.66 0 1.32 0 2 0 C2.33 1.65 2.66 3.3 3 5 C2.01 5 1.02 5 0 5 C-0.66 5.66 -1.32 6.32 -2 7 C-1.125 1.125 -1.125 1.125 0 0 Z " fill="#121B1D" transform="translate(197,242)"/>
<path d="M0 0 C0.66 0 1.32 0 2 0 C2 1.65 2 3.3 2 5 C0.68 5 -0.64 5 -2 5 C-2 4.01 -2 3.02 -2 2 C-1.34 2 -0.68 2 0 2 C0 1.34 0 0.68 0 0 Z " fill="#4B647A" transform="translate(261,207)"/>
<path d="M0 0 C2.35953094 2.35953094 2.49141413 3.77895617 3 7 C1.68 7.33 0.36 7.66 -1 8 C-1.125 2.25 -1.125 2.25 0 0 Z " fill="#44667E" transform="translate(236,167)"/>
<path d="M0 0 C1.32 0 2.64 0 4 0 C4 1.98 4 3.96 4 6 C3.01 5.67 2.02 5.34 1 5 C0.67 3.35 0.34 1.7 0 0 Z " fill="#0F181B" transform="translate(266,130)"/>
<path d="M0 0 C0.66 1.32 1.32 2.64 2 4 C0.35 5.65 -1.3 7.3 -3 9 C-3 5.30581799 -1.71820705 3.22163822 0 0 Z " fill="#5A5E61" transform="translate(233,110)"/>
<path d="M0 0 C0.99 0 1.98 0 3 0 C3 2.64 3 5.28 3 8 C2.54625 7.360625 2.0925 6.72125 1.625 6.0625 C0.16078274 3.90297594 0.16078274 3.90297594 -2 3 C-1.34 2.01 -0.68 1.02 0 0 Z " fill="#627F8B" transform="translate(262,100)"/>
<path d="M0 0 C1.32 0 2.64 0 4 0 C2.63016497 3.16115776 2.0109362 3.9927092 -1 6 C-0.67 4.02 -0.34 2.04 0 0 Z " fill="#4C718A" transform="translate(274,101)"/>
<path d="M0 0 C0.33 0 0.66 0 1 0 C1 2.31 1 4.62 1 7 C-0.32 7 -1.64 7 -3 7 C-1.125 1.125 -1.125 1.125 0 0 Z " fill="#474D50" transform="translate(243,93)"/>
<path d="M0 0 C-0.33 0.66 -0.66 1.32 -1 2 C-1.66 2 -2.32 2 -3 2 C-3 2.66 -3 3.32 -3 4 C-5.475 3.01 -5.475 3.01 -8 2 C-4.77208445 -0.1519437 -3.71599191 -0.20086443 0 0 Z " fill="#0E1419" transform="translate(158,346)"/>
<path d="M0 0 C1.32 1.32 2.64 2.64 4 4 C3.67 4.66 3.34 5.32 3 6 C1.68 5.67 0.36 5.34 -1 5 C-0.67 3.35 -0.34 1.7 0 0 Z " fill="#48687C" transform="translate(356,334)"/>
<path d="M0 0 C3.93846154 3.32307692 3.93846154 3.32307692 4.25 6.75 C4.1675 7.4925 4.085 8.235 4 9 C0 4.5 0 4.5 0 0 Z " fill="#2C393E" transform="translate(362,326)"/>
<path d="M0 0 C1.32 0 2.64 0 4 0 C2.87548273 2.9719385 1.77706209 5.33440687 0 8 C0 5.36 0 2.72 0 0 Z " fill="#646A6F" transform="translate(190,291)"/>
<path d="M0 0 C0.66 0 1.32 0 2 0 C4 2 4 2 5 5 C4.34 5 3.68 5 3 5 C2.67 5.66 2.34 6.32 2 7 C0.5393715 4.35261084 0 3.10551666 0 0 Z " fill="#4B5157" transform="translate(375,290)"/>
<path d="M0 0 C4 4.5 4 4.5 4 9 C1.43135272 7.71567636 1.053461 6.63365249 0 4 C0 2.68 0 1.36 0 0 Z " fill="#687D8C" transform="translate(363,265)"/>
<path d="M0 0 C0.66 0.99 1.32 1.98 2 3 C1.34 3 0.68 3 0 3 C-0.12375 3.804375 -0.2475 4.60875 -0.375 5.4375 C-0.58125 6.283125 -0.7875 7.12875 -1 8 C-1.99 8.495 -1.99 8.495 -3 9 C-2.44271087 5.65626525 -1.64826111 2.96687001 0 0 Z " fill="#515457" transform="translate(180,207)"/>
<path d="M0 0 C0.66 1.32 1.32 2.64 2 4 C0.68 5.32 -0.64 6.64 -2 8 C-2.33 7.34 -2.66 6.68 -3 6 C-2.06553465 3.96855359 -1.06775224 1.96466413 0 0 Z " fill="#5C8199" transform="translate(225,187)"/>
<path d="M0 0 C0.99 0.33 1.98 0.66 3 1 C3 3.64 3 6.28 3 9 C2.34 9 1.68 9 1 9 C0.67 6.03 0.34 3.06 0 0 Z " fill="#12171D" transform="translate(268,159)"/>
<path d="M0 0 C0.598125 0.20625 1.19625 0.4125 1.8125 0.625 C1.1525 1.945 0.4925 3.265 -0.1875 4.625 C-1.1775 3.965 -2.1675 3.305 -3.1875 2.625 C-3.8475 2.295 -4.5075 1.965 -5.1875 1.625 C-2.1875 -0.375 -2.1875 -0.375 0 0 Z " fill="#7D8082" transform="translate(231.1875,94.375)"/>
</svg>
